<svg width="32" height="32" viewBox="0 0 32 32" fill="none" xmlns="http://www.w3.org/2000/svg"><path fill-rule="evenodd" clip-rule="evenodd" d="M23.088 29.168l-.034-2.697-.983-.037-.984-.037v-1.004h6.98v-7.36h1.462c1.078 0 1.48-.044 1.527-.164.087-.227-3.02-8.459-3.577-9.477-1.658-3.03-4.375-5.615-6.952-6.613-1.893-.733-2.142-.75-10.665-.75h-7.81V0l8.217.044c8.066.043 8.235.049 9.232.329 3.27.919 5.975 3.027 8.087 6.303.918 1.423 1.274 2.225 2.887 6.495 1.398 3.702 1.524 4.108 1.525 4.893v.857h-2.919v7.481l-2.506.035-2.506.034-.034 2.697L24 31.864h-.879l-.034-2.696zM.022 30.976v.888h18.02v-2.918h-5.964V12.957h1.888l.039-.476.04-.476 1.427-.036c.785-.02 1.425.01 1.42.064-.003.054-.392 1.726-.864 3.716l-.858 3.616-.531.04-.531.038v1.306c0 1.146.035 1.358.285 1.726.616.905.767.95 3.119.95 1.984 0 2.145-.017 2.583-.29.741-.46 1.01-1.162.965-2.52l-.036-1.123-.533-.039c-.368-.026-.554-.105-.6-.253-.035-.119-.41-1.7-.833-3.515-.422-1.815-.8-3.4-.837-3.521-.064-.203.058-.222 1.398-.222h1.468v-.889h-7.994v.445c0 .433-.012.444-.508.444h-.508V8.008h-1.014v3.934h-1.016V8.008H9.032v3.934h-.508c-.495 0-.507-.01-.507-.444v-.445H.022v.889h1.396c1.105 0 1.396.036 1.396.175 0 .097-.371 1.753-.825 3.68a239.189 239.189 0 00-.824 3.568c0 .035-.263.064-.583.064H0l.043 1.364c.037 1.184.082 1.418.338 1.778.548.768.866.855 3.131.855 2.277 0 2.638-.107 3.204-.946.25-.372.286-.585.286-1.738v-1.314H5.914L5.06 15.78c-.47-2.006-.853-3.69-.852-3.743 0-.053.63-.095 1.397-.095h1.396v1.015h2.03v15.989h-3.06l.039.476.039.475 5.488.034 5.488.032v1.013H.022zm11.04-18.02v15.99h-1.015V12.957h1.015zM5.72 22.17c.213-.193.267-.391.267-.984v-.741H1.038v.643c0 .74.155 1.1.547 1.264.153.064 1.085.104 2.073.088 1.563-.025 1.83-.06 2.062-.27zm14.352-1.16c0 .71-.194 1.143-.591 1.324-.178.081-1.038.141-2.026.141h-1.717l-.371-.37c-.313-.313-.37-.473-.37-1.016v-.644h5.074v.565zM4.844 19.364c0-.078-1.132-4.98-1.225-5.306-.037-.128-.086-.213-.109-.19-.023.024-.306 1.184-.63 2.58a171.1 171.1 0 01-.652 2.758c-.06.202.058.223 1.275.223.738 0 1.341-.03 1.341-.065zM17.961 15.4c.192.855.482 2.112.644 2.792l.295 1.238h-1.394c-1.064 0-1.38-.038-1.335-.16.033-.086.332-1.3.665-2.696.333-1.395.643-2.58.69-2.633.047-.053.243.603.435 1.459zM2.053 28.946v1.014h1.015v-1.014H2.053zm2.03.507c0-.495.01-.507.444-.507s.444.012.444.507c0 .496-.01.508-.444.508-.433 0-.444-.012-.444-.508zM17.026 8.008v1.015h1.016V8.008h-1.016zm2.03.508v-.508h1.016v1.015h-1.015v-.507zm2.031-.508v1.03L21.563 9c.45-.037.478-.065.515-.515l.04-.476h-1.031zM11.062 6.485v-.507h1.016v1.015h-1.016v-.508zm2.475-.507c-.434 0-.444.012-.444.507 0 .496.01.508.444.508.433 0 .444-.012.444-.508 0-.495-.01-.507-.444-.507zm1.483.539c.037-.45.065-.478.515-.515l.476-.04v1.031h-1.03l.04-.476zm2.006-.54v1.016h1.016V5.978h-1.016zm2.03.508v-.507h1.016v1.015h-1.015v-.508zM9.033 3.932v1.031h1.03l-.039-.476c-.037-.45-.065-.478-.515-.516l-.476-.039zm2.03.515v-.515l.476.04c.45.037.478.065.515.515l.04.476h-1.032v-.516zm2.475-.5c-.434 0-.444.012-.444.508 0 .495.01.508.444.508.433 0 .444-.013.444-.508 0-.496-.01-.508-.444-.508zm1.483.54c.037-.45.065-.478.515-.516l.476-.039v1.031h-1.03l.04-.476zM.022.014v1.015h1.016V.014H.022z" fill="#000"/></svg>