<svg width="32" height="30" viewBox="0 0 32 30" fill="none" xmlns="http://www.w3.org/2000/svg"><path fill-rule="evenodd" clip-rule="evenodd" d="M11.257 8.676c-.43.856-.591 1.32-.535 1.544.055.218.177.32.382.32.167 0 1.345-.695 2.618-1.545l2.316-1.546 2.52-.042c2.06-.034 2.543-.08 2.648-.245.177-.281.17-6.568-.008-6.9C21.063.01 20.862 0 16.022 0c-3.736 0-5.077.042-5.198.162-.205.205-.23 6.35-.028 6.728.074.138.346.32.605.406l.47.155-.614 1.225zM.01 21.136c-.024 1.702-.007 3.238.036 3.412l.08.317h4.565c3.37 0 4.607-.043 4.727-.162.116-.117.162-.992.162-3.084 0-3.598-.103-4.06-1.13-5.08-.382-.38-.782-.718-.888-.751-.134-.042.003-.242.44-.645.372-.343.812-.95 1.071-1.475.393-.797.439-1.014.436-2.044-.002-.957-.063-1.28-.36-1.92-.988-2.126-3.463-3.27-5.677-2.627a4.73 4.73 0 00-1.857 8.117c.323.292.518.554.434.582-.475.158-1.237.892-1.59 1.532l-.406.732-.043 3.096zm10.651 4.898c0 3.107.021 3.424.236 3.55.149.086 2.057.139 5.126.141 4.268.004 4.916-.023 5.101-.208.18-.18.213-.669.213-3.25 0-3.4-.079-3.776-.817-3.924-.22-.044-.4-.134-.4-.2 0-.067.273-.665.607-1.329.598-1.19.648-1.53.252-1.682-.265-.101-.408-.02-2.984 1.7l-2.193 1.465h-2.408c-1.693 0-2.457.048-2.57.162-.118.118-.163 1.1-.163 3.575zm9.594-2.656v5.27h-8.513v-5.27h4.301l1.633-1.079c.899-.593 1.634-1.047 1.634-1.009 0 .039-.152.37-.338.737-.186.366-.338.758-.338.869 0 .288.433.482 1.072.482h.55zm-6.35 2.568c0-.528.01-.54.472-.54.462 0 .473.012.473.54 0 .527-.011.54-.473.54-.462 0-.473-.013-.473-.54zm2.6-.515c-.479.04-.508.07-.548.549l-.042.506h1.097V25.39l-.506.042zm1.588.515v-.54h1.081v1.08h-1.08v-.54zM8.5 21.21c0-2.4-.03-2.766-.258-3.21-.315-.611-.896-1.178-1.406-1.37-.437-.166-1.308-.194-1.312-.043-.001.055.192.9.43 1.877l.434 1.776-.585.899c-.662 1.015-.993 1.268-1.312 1.003-.38-.316-1.261-1.718-1.261-2.009 0-.157.182-1.008.405-1.89.223-.884.405-1.64.405-1.682 0-.042-.224-.076-.497-.076-.727 0-1.575.465-2.021 1.108l-.387.557-.041 2.884-.041 2.884H8.5V21.21zm-3.46-2.089c.207.827.208.938.016 1.231l-.02.031c-.115.175-.172.262-.234.267-.062.005-.13-.07-.265-.22l-.024-.026c-.222-.246-.23-.343-.074-1.048.267-1.206.348-1.238.6-.235zm1.337-4.153c1.245-.533 2.124-1.944 2.122-3.405-.003-1.264-.91-2.668-2.107-3.262-.398-.197-.812-.262-1.687-.262-1.055 0-1.219.037-1.824.41-.406.252-.874.715-1.203 1.193-.486.705-.544.878-.588 1.768-.058 1.138.188 1.852.925 2.691 1.08 1.231 2.74 1.56 4.362.867zm-3.215-4.97c-.462 0-.473.014-.473.541 0 .528.011.541.473.541.462 0 .473-.013.473-.54 0-.528-.011-.541-.473-.541zm2.66.575c.04-.479.07-.509.55-.549l.506-.041v1.097H5.78l.043-.507zm16.598 10.85c0 1.794.04 3.302.09 3.352.05.05 2.145.09 4.657.09 4.493 0 4.57-.005 4.718-.282.103-.192.136-1.244.104-3.277-.043-2.797-.068-3.042-.364-3.702-.295-.657-1.214-1.675-1.641-1.817-.125-.042.064-.313.57-.82.974-.973 1.359-1.917 1.368-3.353.006-.867-.056-1.156-.41-1.914a4.85 4.85 0 00-2.314-2.365c-.674-.33-.918-.376-2.049-.375-1.127 0-1.376.046-2.044.373-.897.44-1.911 1.474-2.322 2.367-.235.511-.293.893-.294 1.921-.002 1.11.047 1.388.358 2.053.198.422.654 1.05 1.014 1.394.587.563.628.64.409.763-.567.318-1.18.983-1.503 1.634-.344.69-.347.727-.347 3.958zm8.482-.214c.035-2.537.024-2.666-.276-3.233-.473-.895-1.162-1.387-2.044-1.46l-.733-.061.474 1.89.473 1.89-.634.955c-.902 1.356-1.07 1.38-1.824.26l-.142-.21c-.294-.435-.46-.678-.519-.946-.076-.343.022-.724.245-1.595.026-.103.055-.212.084-.33.254-.998.463-1.83.465-1.849.001-.018-.256-.033-.572-.032-1.073.005-2.072.842-2.396 2.01-.151.543-.19 5.187-.045 5.333.05.05 1.738.076 3.75.056l3.657-.036.037-2.642zm-3.466-2.097c.212.84.214.958.026 1.246-.264.402-.359.399-.582-.019-.148-.276-.15-.474-.007-1.114.094-.429.207-.838.25-.91.044-.072.184.286.313.797zm1.43-4.198c1.095-.519 1.897-1.687 2.028-2.951.215-2.081-1.576-3.987-3.745-3.987-3.305 0-4.934 3.886-2.624 6.264 1.138 1.172 2.759 1.424 4.342.674zm-3.304-4.889c-.48.04-.51.07-.55.55l-.041.506h1.097V9.984l-.506.041zm2.668.515V10h1.081v1.081h-1.08v-.54zM14.408 7.273l1.38-.922h4.469v-5.27h-8.514v5.256l.71.041c.656.038.712.068.75.402.024.199-.083.607-.236.907l-.082.16c-.137.264-.22.426-.181.464.06.06.421-.18 1.346-.8l.357-.238zm-1.11-4.165c-.463 0-.474.013-.474.54 0 .528.011.541.473.541.462 0 .473-.013.473-.54 0-.528-.011-.54-.473-.54zm1.579.574c.04-.479.07-.509.548-.548l.507-.042V4.19h-1.097l.042-.508zm2.136-.574V4.19h1.081V3.11h-1.08z" fill="#000"/></svg>