<svg width="32" height="28" viewBox="0 0 32 28" fill="none" xmlns="http://www.w3.org/2000/svg"><path fill-rule="evenodd" clip-rule="evenodd" d="M.246 27.454c-.24-.241-.246-.41-.246-7.55 0-5.517.036-7.34.148-7.452.211-.211 7.868-.211 8.08 0 .087.088.147.509.147 1.034v.125c0 .38-.001.586.099.71.117.144.372.177.927.248l.156.02c.88.115 1.185-.074 3.07-1.9 1.76-1.707 2.778-2.392 3.867-2.603.904-.175 1.648-.45 2.028-.748.492-.387.904-1.412 1.06-2.638.343-2.692.496-3.221 1.035-3.574.25-.164.282-.264.23-.722-.09-.807.3-1.58 1.031-2.045.7-.444 1.212-.472 1.929-.108.71.36 2.285 1.966 2.884 2.939.271.44 1.01 1.632 1.642 2.648 2.159 3.472 3.436 6.033 3.638 7.295.19 1.185-.547 3.775-2.04 7.177-.49 1.118-1.02 2.409-1.178 2.868-.596 1.738-1.684 2.959-3.03 3.4-.627.206-2.613.185-3.895-.042-.59-.104-2.987-.302-5.324-.44a433.306 433.306 0 01-5.776-.37c-.84-.066-1.712-.12-1.94-.12h-.413v.927c0 .882-.015.933-.316 1.047-.179.068-1.883.12-3.94.12-3.462 0-3.637-.011-3.873-.246zm7.037-7.513c-.026-3.625-.053-6.599-.062-6.61-.009-.01-1.388.012-3.064.05l-3.048.069v13.146l3.11-.033 3.11-.033-.046-6.59zm-3.11 3.571c-1.148 0-1.333 1.605-.232 2.007.102.037.2.072.22.078.019.005.217-.067.44-.16.543-.227.787-.79.57-1.314-.184-.445-.456-.61-.998-.61zm21.583 1.78c1.127-.584 1.886-1.982 2.068-3.812.362-3.64.26-8.068-.245-10.592-.346-1.73-1.015-4.247-1.597-6.012-.4-1.21-.579-1.58-.92-1.902-.49-.46-.854-.51-1.05-.144-.165.308-.105 1.074.391 5.04.542 4.33.57 5.404.186 7.185-.39 1.813-.7 2.373-1.578 2.86-.598.33-.761.363-1.826.363-.876 0-1.268-.054-1.558-.213l-.389-.212-.498.838c-.274.461-.58.908-.682.992a.545.545 0 01-.857-.238c-.092-.263.024-.528.772-1.768.485-.802 1.018-1.729 1.185-2.059.168-.33.77-1.214 1.337-1.964 1.2-1.585 1.739-2.61 1.986-3.778.283-1.335.19-2.95-.265-4.549-.188-.663-.73-1.385-.902-1.198-.174.189-.363.944-.442 1.77-.142 1.473-.427 2.752-.726 3.257-.6 1.016-1.562 1.683-2.77 1.92-1.518.296-2.332.82-4.21 2.703-1.843 1.85-2.195 2.035-3.695 1.938l-1.096-.071v8.704l.709.075c.869.092 7.65.53 9.76.63.847.04 2.067.151 2.71.248a77.59 77.59 0 001.601.227c.733.087 2.238-.052 2.6-.239zm4.758-12.949c.415 1.192.343 2.114-.318 4.087-.272.813-.602 1.728-.732 2.033l-.237.554-.07-3.202c-.074-3.358-.228-4.744-.76-6.835-.163-.643-.284-1.182-.269-1.197.086-.085 2.127 3.816 2.386 4.56zm-8.267 4.625c.6-.18.797-.5 1.107-1.798.217-.912.288-1.567.29-2.704.002-.873-.048-1.534-.12-1.578-.067-.042-.122.003-.122.1 0 .39-.966 2.064-1.894 3.284-1.688 2.219-1.858 2.65-1.093 2.779.254.042.517.094.585.114.157.047.752-.047 1.247-.197zm1.18-15.27a1.186 1.186 0 00-.411.414c-.08.15-.178.568-.218.932l-.074.66-.294-.315c-.204-.217-.314-.508-.355-.94-.052-.532-.018-.67.224-.927.316-.337.808-.394 1.163-.134.223.163.222.173-.035.31z" fill="#000"/></svg>