<svg width="32" height="26" viewBox="0 0 32 26" fill="none" xmlns="http://www.w3.org/2000/svg"><path fill-rule="evenodd" clip-rule="evenodd" d="M.785 25.351c-.161-.09-.404-.33-.539-.535-.236-.358-.245-.682-.246-8.734 0-7.524.02-8.407.21-8.806.191-.403.525-.637 1.218-.851.202-.063.222-.307.222-2.73v-2.66l.326-.388c.179-.213.536-.445.793-.517.625-.173 9.328-.173 9.953 0 .693.193 1.119.765 1.119 1.505 0 .08-.004.153-.007.22-.007.168-.014.3.037.406.195.405 1.224.409 6.202.427l1.704.007c7.32.033 7.634.044 7.986.282.413.28.713.892.713 1.454 0 .282.072.396.286.456.157.044.419.146.582.226l.04.02c.068.033.129.063.183.102C32 5.547 32 6.46 32 14.709v9.951l-.432.431-.431.432-15.03-.004C4.129 25.516 1.02 25.48.786 25.352zm30.047-.996c.115-.116.152-2.335.152-9.21V6.088l-.326-.124c-.196-.075-2.905-.124-6.813-.124h-6.488l-1.79.794-1.79.793-6.259.064c-5.378.054-6.275.09-6.379.254-.072.115-.12 3.407-.122 8.277-.002 7.183.02 8.108.198 8.286.179.179 1.699.2 14.832.2 11.211 0 14.668-.036 14.785-.153zM8.507 15.969c0 4.967.026 5.15.786 5.614.407.248.626.257 6.687.257h.055c5.73 0 6.629 0 7.034-.447.075-.083.134-.181.203-.298l.003-.006c.194-.328.217-.87.217-5.143V11.17l-.435-.475-.434-.474-6.391-.034-.384-.002c-5.474-.03-6.434-.034-6.851.44a1.85 1.85 0 00-.231.37l-.026.05c-.213.405-.233.822-.233 4.924zm13.77 4.656c.173-.174.199-.767.197-4.603-.001-2.552-.053-4.484-.122-4.594-.104-.165-.956-.196-6.159-.226-4.088-.024-6.12.008-6.29.1-.245.13-.253.274-.253 4.695 0 4.21.017 4.571.222 4.69.143.083 2.381.131 6.214.134 5.28.003 6.015-.02 6.19-.196zm-7.389-1.957c-.837.003-1.159.286-.899.791.102.198.336.223 2.076.223h1.961l.085-.337c.115-.456-.21-.68-.99-.68h-.606l-.036-1.809-.035-1.81-1.14-.036c-.94-.031-1.168 0-1.293.17-.16.219-.094.563.138.722.075.051.408.094.74.095l.603.002v2.667l-.604.002zm.761-4.975c-.216-.216-.199-1.057.026-1.244.101-.083.315-.133.476-.11.265.037.293.107.293.74 0 .65-.022.7-.318.735-.175.02-.39-.034-.477-.12zm1.049-8.805l-1.79.793-1.79.794H2.666V3.961c0-1.787.044-2.559.152-2.667.219-.219 9.636-.219 9.854 0 .084.084.153.401.153.705 0 .668.247 1.182.724 1.505.338.229.732.243 7.974.276 6.941.031 7.634.053 7.779.246a.975.975 0 01.158.5v.29l-6.38.036-6.382.036z" fill="#000"/></svg>