<svg width="32" height="32" viewBox="0 0 32 32" fill="none" xmlns="http://www.w3.org/2000/svg"><path fill-rule="evenodd" clip-rule="evenodd" d="M0 30.17c0 1.217.024 1.49.138 1.604.124.125 1.684.138 15.863.138h15.726l.136-.194c.11-.157.137-.469.137-1.579 0-1.728-.003-1.733-1.052-1.733h-.701v-.795c0-1.13-.004-1.134-1.012-1.134h-.83v-.833c0-.716-.024-.858-.175-1.008-.096-.097-.234-.176-.307-.176-.115 0-.131-.725-.131-6.005s.016-6.006.131-6.006c.073 0 .21-.079.307-.175.15-.15.175-.292.175-.956v-.78l.797-.03c1.04-.04 1.045-.048 1.045-1.396V8.088l.757-.04c.608-.032.78-.072.877-.203.134-.184.15-.383.046-.548C31.848 7.173 16.17 0 15.979 0 15.806 0 .362 7.052.165 7.221c-.204.175-.212.472-.02.684.117.13.278.16.833.16h.688l.001.987c0 .617.043 1.068.112 1.206.105.208.154.22.96.244l.85.025.024.895.025.896.285.125.285.126v11.896l-.24.09c-.13.05-.268.138-.305.196-.036.057-.066.469-.067.915l-.001.81h-.773c-1.08 0-1.105.026-1.143 1.133l-.03.884H.93c-.442 0-.76.04-.824.105-.073.074-.105.548-.105 1.572zm30.992-.756v1.49l-15.014.022-15.014.022V29.37l15.014.023 15.014.022zm-1.71-1.49v-.483H2.718v.965h26.564v-.483zm-21.304-2.5v1.053h-3.42v-1.052h3.42zm2.017.22c0-.716.024-.858.175-1.008.096-.097.234-.176.307-.176.115 0 .131-.726.131-6.005 0-5.28-.016-6.006-.131-6.006-.073 0-.21-.079-.307-.175-.15-.15-.175-.292-.175-.964v-.79H9.03v.696c0 .836-.093 1.122-.391 1.197l-.223.055v11.954l.25.094c.296.112.364.359.364 1.314v.647h.965v-.833zm4.47-.22v1.053h-3.419v-1.052h3.42zm2.036.154l.025-.899.283-.131.283-.132.002-5.983c.002-5.534-.01-5.984-.145-5.984-.08 0-.218-.065-.307-.145-.133-.12-.16-.282-.16-.964v-.82H15.43v.805c0 .853-.109 1.124-.452 1.124-.155 0-.162.226-.16 5.984l.002 5.983.283.132.283.131.025.9.025.898h1.04l.025-.899zm4.452-.153v1.052h-3.419v-1.052h3.42zm2.036.153l.025-.899.283-.131.283-.132.002-5.983c.001-5.534-.01-5.984-.145-5.984-.08 0-.219-.065-.307-.145-.133-.12-.16-.282-.16-.964v-.82h-1.052v.827c0 .878-.09 1.102-.445 1.102-.165 0-.169.132-.167 5.984l.002 5.983.283.132.283.131.025.9.025.898h1.04l.025-.899zm4.408-.11v.965l-1.671.024c-.92.013-1.698-.004-1.732-.037-.033-.033-.06-.271-.06-.53v-.469l1.732.024 1.731.023zM7.452 18.456V12.45h-2.28v12.01h2.28v-6.005zm6.488-6.006v12.01h-2.28V12.45h2.28zm6.4 6.006V12.45h-2.28v12.01h2.28v-6.005zm6.487-6.006v12.01h-2.28V12.45h2.28zM7.978 11.003v-.482h-3.42v.964h3.42v-.482zm6.488-.482v.964h-3.42v-.964h3.42zm6.487.482v-.482h-3.419v.964h3.42v-.482zm6.497-.482l-.026.46-.027.46-1.731.024-1.732.024v-.968h3.516zm1.832-1.71v-.745H2.718v1.49h26.564v-.745zM15.978 1.052c.084 0 12.47 5.665 12.954 5.925.184.099-1.89.117-12.976.116L2.762 7.09l.438-.2c7.83-3.61 12.707-5.837 12.778-5.837z" fill="#000"/></svg>