<svg width="32" height="32" viewBox="0 0 32 32" fill="none" xmlns="http://www.w3.org/2000/svg"><path fill-rule="evenodd" clip-rule="evenodd" d="M14.286 9.924c.153.268.182 1.998.186 11.143l.004 10.825h1.016V10.94h1.016v14.984h13.587V4.956l.476.04.477.04.032 10.952.033 10.952H16.508v1.016H32v-24h-1.905V2.05h-6.11l.04.476.039.477 2.508.034 2.509.034-.033 10.95-.032 10.95H17.587l-.032-7.329c-.032-7.14-.027-7.34.221-7.746.324-.532.325-1.18.002-1.784-.14-.26-.254-.617-.254-.792 0-.31.022-.317.926-.317.918 0 .932.005 1.429.517l.502.518 1.034-.041.236-.009c.468-.016.773-.026.97-.176.367-.28.366-1.04.364-3.215V.546L22.65.283c-.273-.215-.516-.264-1.308-.264-.968 0-.976.003-1.469.508-.49.501-.509.508-1.423.508h-.926V.02h-3.048v1.016h-.863c-.843 0-.875-.012-1.365-.517L11.746 0l-1.122.041-.209.007c-.498.016-.82.027-1.026.186-.376.289-.374 1.068-.37 3.263v.505c.004 2.409.047 3.374.16 3.52.284.371.702.497 1.644.497.923 0 .941-.006 1.43-.508.483-.494.52-.507 1.36-.507h.863l-.004.412c-.002.227-.088.524-.19.66-.239.315-.236 1.428.004 1.848zm1.752-1.9c.704-.009 1.199.869.854 1.514-.145.27-.716.488-1.082.412-1.137-.234-.938-1.913.228-1.927zm-4.33-1.362l.355-.34V1.747l-.34-.357c-.29-.302-.443-.356-1.017-.356h-.674v5.97h.66c.542 0 .722-.06 1.015-.342zm4.8-5.627v5.969h-1.016V1.035h1.016zm5.587 2.984V1.035h-.674c-.574 0-.726.054-1.016.356l-.341.357V6.29l.34.356c.29.303.443.357 1.017.357h.674V4.019zm-7.619-1.968v3.937H13.08V2.05h1.396zm4.572 1.968V2.051h-1.524v3.937h1.524V4.019zm-2.032 26.984c-.496 0-.508.011-.508.445s.012.444.508.444.508-.01.508-.444-.012-.445-.508-.445zm-.508-1.523v-.508h1.016v1.016h-1.016v-.508zM0 3.956v24h13.46V26.94H1.016V4.972h1.016v20.952H13.46v-.889H3.048V3.067H8V2.051H2.032v1.905H0zM5.039 22.92c-.048-.048-.087-.277-.087-.51v-.423h7.635l-.04.476-.04.476-3.69.034c-2.03.018-3.73-.006-3.778-.053zm14.516-.933v1.016h7.493v-1.016h-7.493zM4.976 20.496l.04-.477h7.492l.04.477.039.476h-7.65l.04-.476zm14.58-.54v1.016h7.492v-1.016h-7.493zm-14.604-1.46v-.445h7.62v.889h-7.62v-.444zm14.603-.445v.889h7.493v-.889h-7.493zM5.04 16.953c-.048-.048-.087-.277-.087-.51v-.424h7.635l-.04.477-.04.476-3.69.033c-2.03.019-3.73-.005-3.778-.052zm14.516-.934v1.016h7.493V16.02h-7.493zM5.002 14.822c-.038-.1-.05-.314-.028-.476l.042-.295 3.778-.034 3.777-.033v1.02h-3.75c-3.13 0-3.761-.03-3.82-.182zm14.553-.834v1.016h7.493v-1.016h-7.493zM4.976 12.496l.04-.477h7.492l.04.477.039.476h-7.65l.04-.476zm14.58-.54v1.016h7.492v-1.016h-7.493zm-14.604-1.46v-.445h7.62v.889h-7.62v-.444zm14.603-.445v.889h7.493v-.889h-7.493z" fill="#000"/></svg>