<svg width="33" height="34" viewBox="0 0 33 34" fill="none" xmlns="http://www.w3.org/2000/svg"><path fill-rule="evenodd" clip-rule="evenodd" d="M2.23 31.611C1.552 30.95 1 30.347 1 30.273c0-.075 1.299-1.45 2.886-3.056l5.228-5.291 2.342-2.37-.426-.437c-.234-.24-.425-.51-.425-.6 0-.09.476-.644 1.057-1.23l1.058-1.067-1.144-1.07-1.143-1.07-.348.333c-.192.183-.432.334-.534.334-.3 0-3.005-2.645-3.005-2.938 0-.176 1.515-1.79 5.129-5.462 2.82-2.867 5.225-5.264 5.343-5.327.183-.097.44.095 1.703 1.275.984.919 1.488 1.47 1.488 1.627 0 .13-.165.408-.368.617l-.368.38 2.798 2.806a289.548 289.548 0 004.37 4.298l1.572 1.492.458-.413c.252-.227.517-.414.59-.414.207 0 2.84 2.653 2.84 2.862 0 .212-10.468 10.86-10.673 10.857-.183-.002-2.937-2.652-2.935-2.824 0-.076.153-.311.338-.523l.338-.384-.91-.904-.909-.903-1.06 1.055c-.582.58-1.12 1.055-1.196 1.055-.075 0-.305-.148-.512-.328l-.376-.328-5.142 5.216C6.138 30.51 3.82 32.77 3.69 32.786c-.16.02-.61-.341-1.46-1.175zm11.89 1.315c-.17-.105-.2-.305-.2-1.366 0-.683.032-1.324.07-1.423.046-.122.213-.181.506-.181.437 0 .437 0 .566-.62.179-.861.65-1.475 1.337-1.74.505-.195.94-.213 5.125-.213h4.574l.533.314c.6.353.931.816 1.14 1.599.134.498.171.537.55.569l.406.034.032 1.383c.024 1.02-.006 1.415-.114 1.502-.211.17-14.256.307-14.524.142zm11.034-.76l2.83-.074v-1.465l-6.631.024-6.632.024v1.568h3.802c2.09 0 5.075-.035 6.631-.076zm1.292-3.697c.316.292.624.882.624 1.197 0 .155-.654.175-5.675.175h-5.674l.073-.362c.113-.568.586-1.1 1.1-1.239.294-.079 1.995-.11 4.848-.089l4.395.032.31.286zm-12.77-6.71l-4.988 5.07C5.945 29.618 3.67 31.9 3.633 31.9c-.036 0-.423-.358-.858-.797l-.792-.798L3 29.244c.56-.583 2.82-2.875 5.02-5.093l4.003-4.033.826.82.826.821zm16.559-7.096c-.512-.519-.964-.944-1.005-.944-.041 0-2.25 2.216-4.91 4.923l-4.837 4.923.96.965.961.966 4.88-4.945 4.881-4.945-.93-.943zm-17.012 2.103l1.807 1.79 1.806 1.788-.859.862-.858.86-1.8-1.802-1.801-1.804.852-.847.853-.847zm10.506 1.318l3.897-3.982-2.48-2.45a4033.33 4033.33 0 00-4.37-4.311l-1.893-1.863-3.929 4.015-3.929 4.014 4.335 4.273c2.384 2.35 4.366 4.277 4.404 4.28.038.004 1.822-1.786 3.965-3.976zM17.141 1.962c.05-.02.553.417 1.12.972l1.03 1.01-4.887 4.943-4.886 4.944-1.077-1.016L7.363 11.8l4.844-4.9c2.664-2.695 4.885-4.916 4.934-4.937z" fill="#000"/><path d="M2.23 31.611l-.106.108.105-.108zm1.656-4.394l.107.105-.107-.105zm5.228-5.291l.107.105-.107-.105zm2.342-2.37l.106.105.104-.105-.103-.105-.107.104zm-.426-.437l-.107.105.107-.105zm.632-1.83l-.106-.106.106.105zm1.058-1.067l.106.106.11-.11-.114-.105-.102.11zm-1.144-1.07l.103-.11-.103.11zm-1.143-1.07l.103-.11-.104-.098-.103.099.104.108zm-.348.333l-.104-.108.104.108zm1.59-8.066l.107.105-.107-.105zm5.343-5.327l-.07-.132.07.132zm1.703 1.275l.102-.11-.102.11zm1.12 2.244l-.108-.104.108.104zm-.368.38l-.108-.105-.102.106.104.105.106-.106zm2.798 2.806l.106-.106-.106.106zm4.37 4.298l-.103.109.103-.109zm1.572 1.492l-.103.109.1.096.104-.093-.1-.112zm.458-.413l-.1-.111.1.11zm-7.243 13.305l.002-.15-.002.15zm-2.935-2.824l.15.002-.15-.002zm.338-.523l-.112-.099.112.1zm.338-.384l.112.1.093-.107-.1-.1-.105.107zm-.91-.904l-.105.107.105-.107zm-.909-.903l.106-.107-.106-.105-.106.105.106.107zm-1.06 1.055l.107.106-.106-.106zm-1.708.727l-.099.113.099-.113zm-.376-.328l.099-.113-.106-.093-.1.101.107.105zm-5.142 5.216l-.107-.105.107.105zM3.69 32.786l-.019-.15.019.15zm10.43.14l-.078.128.036.022h.043v-.15zm-.13-2.79l.14.055-.14-.054zm1.072-.8l-.147-.031.147.03zm1.337-1.74l-.054-.14.054.14zm9.699-.213l.076-.13-.035-.02h-.041v.15zm.533.314l.076-.13-.076.13zm1.14 1.599l.145-.039-.145.039zm.55.569l-.013.149.013-.15zm.406.034l.15-.004-.003-.134-.134-.012-.012.15zm.032 1.383l-.15.004.15-.004zm-.114 1.502l.094.117-.094-.117zm-14.524.142l.078-.128-.036-.022h-.042v.15zm13.863-.834l.004.15.146-.004v-.146h-.15zm-2.83.075l-.004-.15.004.15zm2.83-1.54h.15v-.15h-.15v.15zm-6.631.024v.15-.15zm-6.632.024v-.15h-.15v.15h.15zm0 1.568h-.15v.15h.15v-.15zm3.802 0v-.15.15zm7.923-3.774l-.101.11.101-.11zm-10.725 1.372l-.147-.029-.036.18h.183v-.15zm.073-.362l-.147-.029.147.03zm1.1-1.239l.04.145-.04-.145zm4.848-.089v-.15.15zm4.395.032l.101-.11-.042-.04h-.058l-.001.15zM8.688 26.83l.107.106-.107-.106zm4.988-5.07l.107.105.105-.106-.106-.105-.106.106zM2.775 31.102l-.107.105.107-.105zm-.792-.798l-.108-.104-.102.105.103.104.107-.105zM3 29.244l-.108-.104.108.104zm5.02-5.093l.107.106-.106-.106zm4.003-4.033l.106-.106-.106-.106-.106.107.106.105zm18.21-5.455l-.106.105.107-.105zm-5.915 3.98l.107.104-.107-.105zm-4.836 4.922l-.107-.105-.104.106.105.105.106-.106zm.96.965l.107-.105-.106.105zm.961.966l-.106.106.107.107.106-.108-.107-.105zm4.88-4.945l.107.106-.106-.106zm4.881-4.945l.107.105.104-.105-.104-.105-.107.105zm-16.135 2.95l-.106.106.106-.107zm-1.807-1.79l.106-.106-.106-.105-.106.105.106.106zm3.613 3.578l.106.106.107-.106-.107-.106-.106.106zm-.859.862l-.106-.106.106.106zm-.858.86l-.106.107.106.106.106-.106-.106-.106zm-1.8-1.802l.105-.106-.106.106zm-1.801-1.804l-.106-.106-.107.106.107.106.106-.106zm.852-.847l-.105-.106.105.106zm15.256-3.51l.107.104.104-.107-.106-.104-.105.106zm-3.897 3.981l-.107-.105.107.105zm1.418-6.431l-.106.106.106-.107zM20.775 7.34l.106-.107-.106.107zm-1.892-1.863l.105-.107-.107-.105-.105.107.107.105zm-3.929 4.015l.107.104-.107-.104zm-3.929 4.014l-.107-.105-.105.107.107.105.105-.107zm4.335 4.273l-.105.107.105-.107zm4.404 4.28l-.014.15.014-.15zM18.26 2.934l-.105.107.105-.107zm-1.119-.972l-.057-.138.057.138zm2.15 1.981l.106.106.106-.107-.108-.106-.105.107zm-4.887 4.944l-.107-.105.107.105zm-4.886 4.944l-.103.11.107.1.103-.104-.107-.106zm-1.077-1.016l.102-.109-.102.11zM7.363 11.8l-.107-.105-.108.109.112.105.103-.109zm4.844-4.9l-.107-.105.107.105zM.85 30.273c0 .041.016.074.021.086a.433.433 0 00.029.048c.02.031.048.067.08.108.066.08.158.186.27.308.226.245.535.563.874.896l.21-.215c-.337-.33-.642-.643-.862-.884a5.733 5.733 0 01-.258-.294 1.189 1.189 0 01-.072-.097l.003.007a.123.123 0 01.005.037h-.3zm2.93-3.162a133.79 133.79 0 00-2.041 2.105c-.262.278-.475.508-.623.674a5.839 5.839 0 00-.174.202 1.087 1.087 0 00-.071.101.164.164 0 00-.02.08h.299c0 .023-.006.04-.008.045l-.005.013.002-.003a5.556 5.556 0 01.2-.239c.146-.162.357-.39.618-.667.522-.553 1.243-1.297 2.036-2.1l-.214-.21zm5.227-5.29L3.78 27.11l.214.211 5.228-5.291-.214-.21zm2.342-2.371l-2.342 2.37.214.211 2.341-2.37-.213-.211zm-.426-.226l.425.436.215-.21-.426-.435-.214.21zm-.468-.705c0 .062.028.125.05.167.026.05.061.106.102.164.082.116.194.25.316.374l.214-.21a2.952 2.952 0 01-.285-.337 1.127 1.127 0 01-.08-.128c-.022-.041-.017-.047-.017-.03h-.3zm1.1-1.336c-.292.295-.559.583-.753.809a4.875 4.875 0 00-.235.29 1.166 1.166 0 00-.071.108.42.42 0 00-.025.052.212.212 0 00-.016.077h.3a.109.109 0 01-.004.03l.006-.01a.9.9 0 01.052-.08c.05-.069.125-.161.22-.271.189-.22.45-.503.74-.794l-.213-.211zm1.058-1.067l-1.057 1.067.213.21 1.057-1.065-.213-.212zm-1.139-.855l1.143 1.07.205-.218-1.143-1.07-.205.218zm-1.143-1.07l1.143 1.07.205-.219-1.143-1.07-.205.219zm-.143.332l.349-.334-.208-.216-.348.333.207.217zm-.637.376a.418.418 0 00.158-.039c.05-.02.102-.05.155-.082.105-.066.221-.156.324-.255l-.207-.216a1.788 1.788 0 01-.276.216.843.843 0 01-.113.061c-.034.015-.046.015-.04.015v.3zM6.396 11.81c0 .035.009.066.017.087a.6.6 0 00.032.068c.025.043.058.092.097.145.079.106.189.237.32.383.26.292.61.653.97 1.003.358.35.727.693 1.026.948.15.127.283.235.391.312.054.038.104.07.148.094a.34.34 0 00.154.048v-.3c.023 0 .024.007-.012-.012a1.162 1.162 0 01-.116-.075 5.634 5.634 0 01-.37-.295c-.293-.25-.656-.587-1.012-.935a21.61 21.61 0 01-.956-.988 5.577 5.577 0 01-.302-.362 1.133 1.133 0 01-.09-.14c-.002-.006.003.002.003.02h-.3zm5.172-5.567a265.59 265.59 0 00-3.922 4.044c-.416.443-.72.778-.921 1.014-.1.118-.177.214-.23.287a.97.97 0 00-.064.101.263.263 0 00-.035.121h.3c0 .03-.012.043 0 .02a.69.69 0 01.044-.068c.045-.063.115-.15.213-.266.196-.23.496-.562.911-1.003.83-.884 2.11-2.204 3.918-4.04l-.214-.21zM16.948.89a.272.272 0 00-.041.028l-.036.03a25.83 25.83 0 00-.445.422c-.287.28-.687.675-1.172 1.158-.969.966-2.275 2.282-3.686 3.716l.214.21a573.43 573.43 0 013.684-3.714c.484-.482.883-.877 1.169-1.155a24.807 24.807 0 01.434-.411.81.81 0 01.025-.022c.009-.007.005-.003-.005.002L16.948.89zm1.875 1.297c-.63-.588-1.016-.937-1.27-1.127a1.202 1.202 0 00-.323-.188.346.346 0 00-.282.018l.141.264c.005-.003.013-.009.048.003a.939.939 0 01.237.143c.237.178.61.515 1.245 1.106l.204-.219zm1.536 1.737a.333.333 0 00-.039-.144 1.014 1.014 0 00-.083-.134 3.91 3.91 0 00-.292-.351 21.399 21.399 0 00-1.122-1.108l-.204.22c.49.458.86.822 1.104 1.09.123.135.212.242.27.323a.73.73 0 01.058.093c.013.025.008.026.008.01h.3zm-.41.721a2.06 2.06 0 00.28-.365c.037-.061.068-.122.09-.18a.5.5 0 00.04-.176h-.3a.23.23 0 01-.018.067.942.942 0 01-.069.135c-.06.102-.146.214-.239.31l.216.21zm-.368.38l.368-.38-.216-.208-.368.38.216.208zm2.796 2.596L19.58 4.815l-.212.212 2.798 2.806.212-.212zm4.367 4.295a292.225 292.225 0 01-4.367-4.295l-.212.212a289.459 289.459 0 004.373 4.301l.206-.218zm1.573 1.492l-1.573-1.492-.206.218 1.572 1.492.207-.218zm.253-.415l-.457.413.2.223.458-.414-.2-.223zm.69-.453a.255.255 0 00-.088.019.589.589 0 00-.07.032c-.046.025-.1.059-.155.098a4.09 4.09 0 00-.377.303l.201.223c.122-.11.247-.21.348-.28a1.34 1.34 0 01.158-.096c.01-.003.002.001-.017.001v-.3zm2.99 3.012a.219.219 0 00-.02-.088.49.49 0 00-.032-.058 1.6 1.6 0 00-.093-.13 7.305 7.305 0 00-.307-.36c-.253-.28-.59-.633-.933-.979a29.195 29.195 0 00-.972-.94 7.4 7.4 0 00-.358-.31 1.586 1.586 0 00-.128-.093.484.484 0 00-.058-.032.214.214 0 00-.089-.022v.3c-.026 0-.042-.008-.035-.005l.021.012c.024.015.058.04.103.075.087.07.204.172.341.297.274.25.62.586.962.93.34.343.675.693.922.968.125.138.226.256.295.345a1.292 1.292 0 01.087.125c.003.006-.005-.008-.005-.035h.3zM21.427 26.56a.168.168 0 00.07-.015.557.557 0 00.073-.047c.03-.023.067-.055.112-.095.09-.08.214-.195.368-.341.307-.292.733-.71 1.239-1.21 1.01-1.002 2.339-2.34 3.66-3.685a424.108 424.108 0 003.622-3.724 95.39 95.39 0 001.19-1.26c.144-.157.258-.284.337-.375a2.44 2.44 0 00.124-.16.255.255 0 00.015-.028.168.168 0 00.015-.067h-.3c0-.03.01-.051.01-.053a.032.032 0 01.004-.007l-.014.02a2.254 2.254 0 01-.082.1c-.075.087-.186.21-.329.366-.286.31-.694.743-1.186 1.257a424.477 424.477 0 01-3.62 3.721 425.498 425.498 0 01-3.658 3.681c-.504.5-.93.916-1.234 1.207a15.69 15.69 0 01-.36.334 2.142 2.142 0 01-.116.096l.008-.004c.001 0 .024-.011.056-.01l-.004.3zm-3.083-2.975a.2.2 0 00.024.093.6.6 0 00.033.054c.024.035.058.076.096.122.079.092.19.212.32.35.263.274.614.623.97.966.357.343.72.681 1.006.934.143.127.268.233.364.31.048.037.091.069.127.092a.499.499 0 00.055.032.211.211 0 00.088.022l.004-.3c.03 0 .047.011.038.007a1.564 1.564 0 01-.127-.09 8.49 8.49 0 01-.35-.297 35.05 35.05 0 01-.996-.926 34.951 34.951 0 01-.962-.958 8.283 8.283 0 01-.308-.336 1.428 1.428 0 01-.091-.119c-.004-.008.009.013.009.047l-.3-.003zm.376-.62c-.098.11-.187.227-.252.329-.033.05-.061.1-.082.143a.368.368 0 00-.042.148l.3.003c0 .017-.005.014.012-.021.014-.028.035-.066.064-.11a2.73 2.73 0 01.225-.295l-.225-.198zm.337-.385l-.337.384.225.198.337-.384-.225-.198zm-.902-.698l.909.904.211-.213-.909-.904-.211.213zm-.91-.904l.91.904.211-.213-.909-.904-.212.213zm-.847 1.055l1.06-1.055-.213-.213-1.06 1.056.213.212zm-1.303 1.1a.2.2 0 00.08-.02.41.41 0 00.048-.024c.03-.018.063-.043.1-.071a6.29 6.29 0 00.28-.233c.219-.194.502-.46.794-.752l-.211-.212c-.29.288-.568.55-.782.739-.107.094-.197.17-.263.22a.954.954 0 01-.075.053l-.012.006.009-.003a.12.12 0 01.032-.004v.3zm-.61-.366c.107.095.223.181.322.245.05.032.098.06.142.08a.36.36 0 00.146.04v-.3c.018 0 .016.005-.019-.011a1 1 0 01-.107-.062 2.544 2.544 0 01-.287-.218l-.198.226zm-.376-.328l.375.328.197-.226-.375-.328-.197.226zM9.17 27.647l5.143-5.216-.213-.211-5.143 5.216.213.21zm-5.462 5.288c.038-.005.067-.023.076-.028a1.957 1.957 0 00.152-.116c.083-.07.198-.173.34-.304.282-.262.676-.64 1.157-1.11a289.74 289.74 0 003.737-3.73l-.213-.211a289.313 289.313 0 01-3.733 3.727c-.48.469-.873.845-1.153 1.104-.14.13-.25.229-.33.296a1.734 1.734 0 01-.108.085c-.008.005.009-.007.038-.011l.037.298zm-1.584-1.216c.427.417.756.72 1 .916.123.099.228.174.316.223a.729.729 0 00.129.06c.04.013.089.023.14.017l-.038-.298c.01-.001.01.002-.008-.004a.439.439 0 01-.076-.036 2.198 2.198 0 01-.274-.195 14.792 14.792 0 01-.979-.898l-.21.215zm11.646-.159c0 .527.008.854.038 1.063a.808.808 0 00.077.265.422.422 0 00.157.166l.157-.256a.123.123 0 01-.05-.051.528.528 0 01-.044-.167c-.027-.183-.035-.486-.035-1.02h-.3zm.08-1.477a.473.473 0 00-.022.092 6.954 6.954 0 00-.037.447c-.013.261-.02.595-.02.938h.3c0-.34.007-.668.02-.923a6.878 6.878 0 01.033-.415l.006-.032-.28-.107zm.646-.277c-.154 0-.288.015-.396.053a.394.394 0 00-.25.224l.28.107c.002-.006.012-.027.071-.048a.923.923 0 01.295-.036v-.3zm.42-.501a5.534 5.534 0 01-.08.348.33.33 0 01-.052.124c-.005.005-.013.014-.056.02-.05.008-.118.009-.232.009v.3c.105 0 .2 0 .278-.012a.376.376 0 00.232-.115.6.6 0 00.119-.244c.027-.094.052-.216.084-.37l-.294-.06zm1.429-1.849c-.744.287-1.243.95-1.43 1.849l.294.06c.17-.821.615-1.386 1.244-1.63l-.108-.279zm5.18-.223c-2.092 0-3.251.005-3.95.034-.702.029-.956.083-1.23.189l.108.28c.23-.089.446-.141 1.134-.17.691-.028 1.843-.033 3.937-.033v-.3zm4.573 0h-4.574v.3h4.574v-.3zm.609.334l-.533-.313-.152.258.533.314.152-.259zm1.21 1.69c-.218-.814-.57-1.313-1.21-1.69l-.152.259c.561.33.87.757 1.072 1.509l.29-.078zm.417.458c-.2-.017-.244-.035-.272-.064a.331.331 0 01-.062-.114 3.12 3.12 0 01-.084-.28l-.29.078c.034.124.063.226.094.309a.63.63 0 00.126.215c.119.123.284.14.462.155l.026-.299zm.406.034l-.406-.034-.026.299.407.034.025-.299zm.17 1.53l-.032-1.384-.3.007.032 1.384.3-.007zm-.17 1.622a.384.384 0 00.117-.206c.02-.078.035-.179.044-.3.019-.246.02-.606.009-1.116l-.3.007c.011.51.01.856-.008 1.085a1.402 1.402 0 01-.035.246c-.015.056-.027.059-.016.05l.188.234zm-14.698.153a.224.224 0 00.068.026 2.478 2.478 0 00.205.023c.121.008.288.015.494.02.412.013.985.02 1.664.024 1.358.008 3.147 0 4.933-.017s3.57-.045 4.922-.08a76.4 76.4 0 001.65-.055c.204-.01.368-.02.486-.03a2.24 2.24 0 00.2-.028c.008-.003.044-.011.075-.036l-.188-.234c.025-.02.047-.023.036-.02a1.998 1.998 0 01-.15.019c-.112.01-.271.02-.473.03-.403.019-.969.038-1.643.055-1.35.034-3.133.062-4.918.08a341.55 341.55 0 01-4.929.016 78.087 78.087 0 01-1.657-.023 13.098 13.098 0 01-.481-.02 2.226 2.226 0 01-.16-.017c-.01-.002.004 0 .023.011l-.157.256zm.079.022v-.3.3zm13.86-1.134l-2.83.075.007.3 2.83-.075-.008-.3zm-.147-.582v.732h.3v-.732h-.3zm0-.733v.733h.3v-.733h-.3zm-6.48.174l6.63-.024v-.3l-6.632.024.001.3zm-6.633.024l6.632-.024v-.3l-6.633.024.001.3zm.15.634v-.784h-.3v.784h.3zm0 .784v-.784h-.3v.784h.3zm3.652-.15H14.72v.3h3.802v-.3zm6.627-.076a308.57 308.57 0 01-6.627.075v.3c2.091 0 5.077-.034 6.635-.075l-.008-.3zm2.07-2.35c0-.195-.091-.448-.21-.677a2.393 2.393 0 00-.462-.63l-.203.22a2.1 2.1 0 01.398.548c.114.218.177.418.177.538h.3zm-5.825.324c2.51 0 3.93-.005 4.725-.03.395-.011.643-.028.794-.054a.61.61 0 00.19-.058.233.233 0 00.08-.07.196.196 0 00.036-.113h-.3a.103.103 0 01.033-.074.067.067 0 01.004-.004 6.434 6.434 0 01-.847.074c-.788.024-2.203.03-4.715.03v.3zm-5.674 0h5.674v-.3h-5.674v.3zm-.074-.541l-.073.362.294.059.073-.362-.294-.059zm1.208-1.354c-.575.154-1.085.736-1.208 1.354l.294.059c.103-.519.54-1.002.992-1.124l-.078-.29zM21.743 28c-1.427-.01-2.567-.008-3.387.007-.41.008-.742.018-.99.032-.241.014-.42.031-.51.056l.077.29c.056-.016.2-.032.45-.046.242-.014.57-.024.978-.032.817-.015 1.954-.017 3.38-.007l.002-.3zm4.395.032L21.743 28l-.002.3 4.395.033.002-.3zm.41.326l-.31-.286-.203.22.31.287.203-.22zM8.795 26.935l4.988-5.07-.214-.211-4.988 5.07.214.21zM3.633 32.05c.038 0 .066-.015.068-.016a.164.164 0 00.036-.024 28.928 28.928 0 00.42-.403c.263-.259.637-.631 1.095-1.09.917-.92 2.171-2.188 3.543-3.582l-.214-.21a803.567 803.567 0 01-3.541 3.58c-.458.459-.832.83-1.092 1.088a28.67 28.67 0 01-.399.383l.005-.003a.045.045 0 01.014-.008c.001 0 .028-.015.065-.015v.3zm-.965-.843c.219.22.426.422.583.568.079.073.146.134.197.177a1.165 1.165 0 00.102.075.163.163 0 00.083.023v-.3a.138.138 0 01.062.014l-.004-.003a5.368 5.368 0 01-.235-.206c-.154-.143-.358-.34-.575-.559l-.213.211zm-.792-.798l.792.798.213-.211-.792-.798-.213.211zm1.017-1.27L1.875 30.2l.216.209 1.018-1.06-.216-.208zm5.022-5.094a759.942 759.942 0 00-5.022 5.095l.216.207c.56-.581 2.817-2.872 5.02-5.09l-.214-.212zm4.003-4.032l-4.003 4.032.213.212 4.003-4.033-.213-.211zm1.038.82l-.826-.821-.211.213.825.82.212-.213zm.826.82l-.826-.82-.211.212.825.82.212-.212zM29.23 13.87a.135.135 0 01-.062-.015l.007.005c.013.01.033.025.06.048.053.046.128.113.218.198.18.17.42.404.675.662l.213-.21c-.256-.26-.499-.498-.683-.67a7.068 7.068 0 00-.228-.208 1.43 1.43 0 00-.113-.086.166.166 0 00-.087-.024v.3zm-4.804 4.877a677.184 677.184 0 013.437-3.476c.445-.446.808-.807 1.061-1.056a24.941 24.941 0 01.388-.37l-.005.003a.154.154 0 01-.015.008c-.004.002-.028.014-.062.014v-.3a.15.15 0 00-.064.014l-.02.01a3.606 3.606 0 00-.133.117l-.299.29c-.255.25-.618.612-1.063 1.059a696.22 696.22 0 00-3.439 3.477l.214.21zM19.59 23.67l4.836-4.923-.214-.21-4.836 4.923.214.21zm.96.755l-.96-.966-.213.212.96.965.213-.211zm.96.965l-.96-.965-.213.211.96.966.213-.212zm4.668-4.944l-4.88 4.945.213.21 4.88-4.944-.213-.211zm4.88-4.945l-4.88 4.945.213.21 4.88-4.944-.213-.211zm-.93-.733l.93.943.214-.21-.93-.944-.214.211zm-14.993 3.68L13.33 16.66l-.211.213 1.806 1.789.211-.213zm1.807 1.79l-1.807-1.79-.21.214 1.806 1.789.21-.213zm-.858 1.073l.858-.86-.212-.213-.859.862.213.211zm-.859.862l.859-.861-.213-.212-.858.86.212.213zm-2.013-1.803l1.8 1.803.213-.212-1.8-1.803-.213.212zm-1.8-1.804l1.8 1.804.212-.212-1.8-1.804-.212.212zm.853-1.059l-.853.847.211.213.853-.847-.211-.213zm.852-.847l-.852.847.211.213.853-.847-.212-.213zm14.402-2.663l-3.897 3.982.215.21 3.896-3.982-.214-.21zM25.04 11.76l2.48 2.45.21-.213-2.479-2.45-.21.213zm-4.37-4.312a3679.55 3679.55 0 014.37 4.312l.211-.213c-1.363-1.348-3.33-3.288-4.371-4.312l-.21.213zm-1.893-1.862l1.892 1.862.21-.213-1.892-1.863-.21.214zM15.06 9.598l3.93-4.015-.215-.21-3.93 4.015.215.21zm-3.929 4.014l3.93-4.014-.215-.21-3.93 4.014.215.21zm4.333 4.062L11.13 13.4l-.21.214 4.335 4.273.21-.213zm4.312 4.237c.028.002.049.013.051.014a.11.11 0 01.014.007l.004.004-.014-.012a24.246 24.246 0 01-.334-.312 540.202 540.202 0 01-4.032-3.938l-.211.213a633.497 633.497 0 003.082 3.021 147.453 147.453 0 001.223 1.174 3.48 3.48 0 00.103.091.21.21 0 00.034.022.155.155 0 00.053.015l.027-.3zm3.845-3.932a438.177 438.177 0 01-2.77 2.81c-.36.36-.653.651-.859.852a16.493 16.493 0 01-.3.285l-.007.007-.002.002.002-.002a.128.128 0 01.007-.005l.02-.009a.147.147 0 01.064-.008l-.027.299a.152.152 0 00.09-.02c.01-.006.017-.01.021-.014a2.262 2.262 0 00.098-.086c.058-.054.14-.133.244-.234.207-.203.5-.495.86-.855a433.36 433.36 0 002.774-2.812l-.215-.21zM18.365 2.827a17.836 17.836 0 00-.76-.708 4.658 4.658 0 00-.259-.212.935.935 0 00-.092-.062.3.3 0 00-.05-.023.162.162 0 00-.12.002l.114.277a.138.138 0 01-.09.005c-.007-.002-.008-.003-.002 0 .012.007.032.02.062.042.058.043.14.11.24.198.2.174.466.42.747.695l.21-.214zm1.03 1.01l-1.03-1.01-.21.214 1.03 1.01.21-.215zm-4.884 5.156l4.886-4.944-.214-.211-4.886 4.944.214.21zm-4.886 4.944l4.886-4.944-.213-.211-4.886 4.944.213.21zm-1.287-1.013l1.077 1.017.206-.219-1.078-1.016-.205.218zM7.26 11.908l1.078 1.016.205-.218-1.077-1.016-.206.218zm4.84-5.114l-4.844 4.9.213.21 4.845-4.9-.214-.21zm4.984-4.97c-.022.009-.038.022-.038.022a.311.311 0 00-.04.035l-.086.08a228.667 228.667 0 00-1.372 1.36c-.894.896-2.115 2.125-3.448 3.473l.214.21a949.34 949.34 0 013.447-3.47 224.41 224.41 0 011.367-1.356 5.347 5.347 0 01.1-.093c.001-.002.001-.002 0 0l-.006.004c-.002 0-.01.007-.024.012l-.114-.277z" fill="#000"/></svg>