<svg width="20" height="20" viewBox="0 0 20 20" fill="none" xmlns="http://www.w3.org/2000/svg"><path fill-rule="evenodd" clip-rule="evenodd" d="M0 10C0 4.5 4.47 0 10 0a10.002 10.002 0 0110 10 10.002 10.002 0 01-17.071 7.071A10.002 10.002 0 010 10zm11.91-4C11.5 4.57 10.83 3.23 10 2.03 9.17 3.23 8.5 4.57 8.09 6h3.82zM6 6H3.08A7.923 7.923 0 017.4 2.44C6.8 3.55 6.35 4.75 6 6zm6.5 4c0 .68-.07 1.34-.16 2H7.66c-.1-.66-.16-1.32-.16-2 0-.68.06-1.35.16-2h4.68c.09.65.16 1.32.16 2zm2 0c0 .68-.06 1.34-.14 2h3.38c.16-.64.26-1.31.26-2s-.1-1.36-.26-2h-3.38c.08.66.14 1.32.14 2zm-.53 4a15.65 15.65 0 01-1.38 3.56A8.03 8.03 0 0016.92 14h-2.95zm-5.88 0c.41 1.43 1.08 2.76 1.91 3.96.83-1.2 1.5-2.53 1.91-3.96H8.09zM6 14H3.08a8.008 8.008 0 004.32 3.56C6.8 16.45 6.35 15.25 6 14zm-3.74-2C2.1 11.36 2 10.69 2 10s.1-1.36.26-2h3.38c-.08.66-.14 1.32-.14 2 0 .68.06 1.34.14 2H2.26zm14.66-6h-2.95a15.65 15.65 0 00-1.38-3.56c1.84.63 3.37 1.9 4.33 3.56z" fill="#045FAF"/></svg>