<svg width="27" height="27" viewBox="0 0 27 27" fill="none" xmlns="http://www.w3.org/2000/svg">
<path fill-rule="evenodd" clip-rule="evenodd" d="M3.3332 0H15.3332C16.0404 0 16.7187 0.281 17.2188 0.7811C17.7189 1.2812 17.9998 1.9595 17.9998 2.6667V5.3334H15.3332V2.6667H3.3332V24H15.3332V21.3334H17.9998V24C17.9998 24.7073 17.7189 25.3856 17.2188 25.8857C16.7187 26.3858 16.0404 26.6667 15.3332 26.6667H3.3332C2.6259 26.6667 1.9476 26.3858 1.4475 25.8857C0.947504 25.3856 0.666504 24.7073 0.666504 24V2.6667C0.666504 1.9595 0.947504 1.2812 1.4475 0.7811C1.9476 0.281 2.6259 0 3.3332 0ZM20.3331 16V20L26.9998 13.3334L20.3331 6.6667V10.6667H10.9998V16H20.3331Z" fill="#045FAF"/>
</svg>
