<svg width="33" height="34" viewBox="0 0 33 34" fill="none" xmlns="http://www.w3.org/2000/svg">
<path fill-rule="evenodd" clip-rule="evenodd" d="M2.22916 31.6114C1.55312 30.9496 1 30.3474 1 30.2729C1 30.1985 2.29874 28.8233 3.88609 27.2168L9.11393 21.9256L11.4557 19.5553L11.0301 19.1195C10.7961 18.8798 10.6046 18.6096 10.6046 18.5191C10.6046 18.4286 11.0805 17.8748 11.6622 17.2883L12.7199 16.2221L11.5765 15.1516L10.4331 14.0811L10.0846 14.4148C9.89295 14.5984 9.65301 14.7486 9.5514 14.7486C9.25192 14.7486 6.54551 12.1039 6.54551 11.8112C6.54551 11.6349 8.061 10.0209 11.6747 6.34884C14.4957 3.48221 16.9004 1.08513 17.0183 1.02201C17.2005 0.92453 17.4572 1.11672 18.721 2.29682C19.7049 3.21557 20.2092 3.76685 20.2092 3.92381C20.2092 4.05437 20.0435 4.33207 19.8411 4.54092L19.4731 4.92065L22.2709 7.72689C23.8096 9.27032 25.7762 11.2045 26.6409 12.0252L28.2132 13.5172L28.6708 13.1038C28.9225 12.8765 29.1878 12.6904 29.2604 12.6904C29.4677 12.6904 32.1006 15.3433 32.1006 15.5523C32.1006 15.7639 21.633 26.4123 21.4279 26.4093C21.2447 26.4067 18.4908 23.7572 18.4926 23.5853C18.4934 23.5089 18.6458 23.2736 18.8313 23.0623L19.1685 22.6783L18.2593 21.7745L17.3502 20.8707L16.2907 21.9259C15.7079 22.5062 15.1695 22.9811 15.0943 22.9811C15.019 22.9811 14.7885 22.8335 14.5819 22.6532L14.2063 22.3253L9.06359 27.5412C6.13756 30.5089 3.82119 32.7695 3.6896 32.7858C3.5294 32.8057 3.08053 32.4447 2.22916 31.6114ZM14.1205 32.9258C13.9498 32.821 13.9205 32.6208 13.9205 31.5602C13.9205 30.8768 13.9517 30.2361 13.9899 30.1367C14.0364 30.0154 14.2033 29.9558 14.4963 29.9558C14.9332 29.9558 14.9333 29.9557 15.0621 29.3353C15.2408 28.4746 15.7126 27.8607 16.3989 27.5959C16.9037 27.4012 17.3381 27.3832 21.5241 27.3832H26.0977L26.6309 27.6966C27.2317 28.0498 27.5621 28.5132 27.7715 29.296C27.9047 29.794 27.9421 29.8326 28.321 29.8645L28.7275 29.8987L28.7595 31.2825C28.7831 32.3013 28.7529 32.6973 28.6452 32.7837C28.4337 32.9532 14.389 33.0906 14.1206 32.9258H14.1205ZM25.1544 32.1669L27.9843 32.0917V31.3595V30.6273L21.3526 30.6511L14.7208 30.6749V31.4587V32.2426L18.5226 32.2424C20.6136 32.2423 23.5979 32.2083 25.1544 32.1669ZM26.4464 28.4694C26.7623 28.761 27.0696 29.3511 27.0696 29.6663C27.0696 29.8213 26.4158 29.8414 21.3955 29.8414H15.7213L15.7937 29.4794C15.9074 28.9112 16.3804 28.3788 16.8945 28.2404C17.1881 28.1613 18.8887 28.13 21.7418 28.151L26.1367 28.1835L26.4464 28.4694ZM13.6761 21.7592L8.68816 26.8294C5.9448 29.618 3.67015 31.8996 3.63338 31.8996C3.59661 31.8996 3.21021 31.5405 2.77471 31.1017L1.98289 30.3037L3.00103 29.2436C3.56101 28.6606 5.82031 26.3689 8.02171 24.151L12.0243 20.1184L12.8502 20.9388L13.6761 21.7592ZM30.2346 14.6628C29.7229 14.144 29.2708 13.7195 29.2299 13.7195C29.189 13.7195 26.9793 15.9347 24.3194 18.6423L19.4832 23.565L20.4437 24.5305L21.4042 25.496L26.2846 20.5511L31.165 15.6061L30.2346 14.6628ZM13.2231 16.7664L15.0296 18.5554L16.8361 20.3444L15.9774 21.2056L15.1188 22.0668L13.3183 20.2636L11.5177 18.4604L12.3704 17.6134L13.2231 16.7664ZM23.7294 18.0843L27.6258 14.1023L25.1466 11.6525C23.7831 10.3051 21.816 8.3647 20.7753 7.34051L18.8831 5.47835L14.9541 9.49258L11.025 13.5068L15.3598 17.7804C17.744 20.1309 19.7258 22.0568 19.7638 22.0602C19.8019 22.0636 21.5864 20.2744 23.7294 18.0843ZM17.141 1.96243C17.1904 1.94198 17.6941 2.37933 18.2604 2.93432L19.2901 3.9434L14.4042 8.88741L9.51835 13.8314L8.44058 12.8152L7.36281 11.7991L12.207 6.89934C14.8714 4.20449 17.0917 1.98287 17.141 1.96243Z" fill="black"/>
<path d="M2.22916 31.6114L2.12423 31.7186L2.12424 31.7186L2.22916 31.6114ZM3.88609 27.2168L3.99279 27.3222L3.99279 27.3222L3.88609 27.2168ZM9.11393 21.9256L9.22063 22.031L9.22064 22.031L9.11393 21.9256ZM11.4557 19.5553L11.5624 19.6607L11.666 19.5559L11.563 19.4505L11.4557 19.5553ZM11.0301 19.1195L10.9228 19.2243L10.9228 19.2243L11.0301 19.1195ZM11.6622 17.2883L11.5557 17.1827L11.5557 17.1827L11.6622 17.2883ZM12.7199 16.2221L12.8264 16.3277L12.9351 16.2181L12.8224 16.1126L12.7199 16.2221ZM11.5765 15.1516L11.679 15.0421L11.679 15.0421L11.5765 15.1516ZM10.4331 14.0811L10.5356 13.9716L10.4319 13.8745L10.3293 13.9728L10.4331 14.0811ZM10.0846 14.4148L9.98086 14.3065L9.98085 14.3065L10.0846 14.4148ZM11.6747 6.34884L11.7816 6.45405L11.7816 6.45405L11.6747 6.34884ZM17.0183 1.02201L16.9475 0.889744L16.9475 0.889769L17.0183 1.02201ZM18.721 2.29682L18.8234 2.18719L18.8234 2.18719L18.721 2.29682ZM19.8411 4.54092L19.7334 4.43653L19.7334 4.43653L19.8411 4.54092ZM19.4731 4.92065L19.3654 4.81626L19.2628 4.92214L19.3669 5.02656L19.4731 4.92065ZM22.2709 7.72689L22.3771 7.62099L22.3771 7.62098L22.2709 7.72689ZM26.6409 12.0252L26.5376 12.134L26.5376 12.134L26.6409 12.0252ZM28.2132 13.5172L28.1099 13.626L28.2107 13.7216L28.3138 13.6285L28.2132 13.5172ZM28.6708 13.1038L28.5703 12.9925L28.5702 12.9925L28.6708 13.1038ZM21.4279 26.4093L21.4301 26.2593H21.43L21.4279 26.4093ZM18.4926 23.5853L18.6426 23.5869V23.5869L18.4926 23.5853ZM18.8313 23.0623L18.7186 22.9633L18.7186 22.9633L18.8313 23.0623ZM19.1685 22.6783L19.2812 22.7773L19.3743 22.6713L19.2743 22.5719L19.1685 22.6783ZM18.2593 21.7745L18.1535 21.8809L18.1536 21.8809L18.2593 21.7745ZM17.3502 20.8707L17.456 20.7643L17.3501 20.6591L17.2444 20.7644L17.3502 20.8707ZM16.2907 21.9259L16.3965 22.0322L16.3966 22.0322L16.2907 21.9259ZM14.5819 22.6532L14.4833 22.7662L14.4833 22.7662L14.5819 22.6532ZM14.2063 22.3253L14.3049 22.2123L14.1986 22.1195L14.0995 22.22L14.2063 22.3253ZM9.06359 27.5412L8.95678 27.4359H8.95678L9.06359 27.5412ZM3.6896 32.7858L3.67116 32.6369L3.67111 32.6369L3.6896 32.7858ZM14.1205 32.9258L14.042 33.0536L14.0781 33.0758H14.1205V32.9258ZM13.9899 30.1367L14.1299 30.1905L14.13 30.1904L13.9899 30.1367ZM15.0621 29.3353L14.9152 29.3048L14.9152 29.3048L15.0621 29.3353ZM16.3989 27.5959L16.3449 27.4559L16.3449 27.456L16.3989 27.5959ZM26.0977 27.3832L26.1737 27.2539L26.1385 27.2332H26.0977V27.3832ZM26.6309 27.6966L26.7069 27.5673L26.7069 27.5673L26.6309 27.6966ZM27.7715 29.296L27.9164 29.2572L27.9164 29.2572L27.7715 29.296ZM28.321 29.8645L28.3084 30.014H28.3084L28.321 29.8645ZM28.7275 29.8987L28.8775 29.8952L28.8743 29.7605L28.7401 29.7492L28.7275 29.8987ZM28.7595 31.2825L28.6095 31.286V31.286L28.7595 31.2825ZM28.6452 32.7837L28.739 32.9007L28.7391 32.9007L28.6452 32.7837ZM14.1206 32.9258L14.1991 32.798L14.163 32.7758H14.1206V32.9258ZM27.9843 32.0917L27.9883 32.2416L28.1343 32.2378V32.0917H27.9843ZM25.1544 32.1669L25.1504 32.017H25.1504L25.1544 32.1669ZM27.9843 30.6273H28.1343V30.4768L27.9838 30.4773L27.9843 30.6273ZM21.3526 30.6511L21.3531 30.8011L21.3526 30.6511ZM14.7208 30.6749L14.7203 30.5249L14.5708 30.5254V30.6749H14.7208ZM14.7208 32.2426H14.5708V32.3926L14.7208 32.3926L14.7208 32.2426ZM18.5226 32.2424L18.5226 32.0924L18.5226 32.2424ZM26.4464 28.4694L26.3447 28.5796L26.3447 28.5796L26.4464 28.4694ZM15.7213 29.8414L15.5742 29.812L15.5383 29.9914H15.7213V29.8414ZM15.7937 29.4794L15.6466 29.45L15.6466 29.45L15.7937 29.4794ZM16.8945 28.2404L16.9335 28.3852L16.9335 28.3852L16.8945 28.2404ZM21.7418 28.151L21.7429 28.001H21.7429L21.7418 28.151ZM26.1367 28.1835L26.2384 28.0733L26.1958 28.0339L26.1378 28.0335L26.1367 28.1835ZM8.68816 26.8294L8.79509 26.9346L8.68816 26.8294ZM13.6761 21.7592L13.783 21.8644L13.8877 21.758L13.7818 21.6528L13.6761 21.7592ZM2.77471 31.1017L2.66823 31.2074L2.66824 31.2074L2.77471 31.1017ZM1.98289 30.3037L1.8747 30.1998L1.77327 30.3054L1.87641 30.4094L1.98289 30.3037ZM3.00103 29.2436L2.89285 29.1397L2.89284 29.1397L3.00103 29.2436ZM8.02171 24.151L8.12817 24.2567H8.12817L8.02171 24.151ZM12.0243 20.1184L12.13 20.012L12.0236 19.9062L11.9178 20.0127L12.0243 20.1184ZM30.2346 14.6628L30.1278 14.7681V14.7681L30.2346 14.6628ZM24.3194 18.6423L24.4264 18.7474L24.4264 18.7474L24.3194 18.6423ZM19.4832 23.565L19.3762 23.4599L19.2723 23.5657L19.3769 23.6708L19.4832 23.565ZM20.4437 24.5305L20.55 24.4247L20.4437 24.5305ZM21.4042 25.496L21.2979 25.6018L21.4046 25.7091L21.511 25.6014L21.4042 25.496ZM26.2846 20.5511L26.3914 20.6565L26.3914 20.6565L26.2846 20.5511ZM31.165 15.6061L31.2718 15.7115L31.3757 15.6061L31.2718 15.5008L31.165 15.6061ZM15.0296 18.5554L14.9241 18.662L15.0296 18.5554ZM13.2231 16.7664L13.3286 16.6598L13.2229 16.5551L13.1174 16.66L13.2231 16.7664ZM16.8361 20.3444L16.9423 20.4503L17.0486 20.3437L16.9416 20.2378L16.8361 20.3444ZM15.9774 21.2056L15.8712 21.0997L15.8712 21.0997L15.9774 21.2056ZM15.1188 22.0668L15.0127 22.1728L15.1189 22.2792L15.225 22.1727L15.1188 22.0668ZM13.3183 20.2636L13.4244 20.1576L13.4244 20.1576L13.3183 20.2636ZM11.5177 18.4604L11.412 18.354L11.3053 18.46L11.4116 18.5664L11.5177 18.4604ZM12.3704 17.6134L12.2647 17.507L12.3704 17.6134ZM27.6258 14.1023L27.733 14.2072L27.8374 14.1005L27.7312 13.9956L27.6258 14.1023ZM23.7294 18.0843L23.6222 17.9794V17.9794L23.7294 18.0843ZM25.1466 11.6525L25.0412 11.7592L25.0412 11.7592L25.1466 11.6525ZM20.7753 7.34051L20.8805 7.2336L20.8805 7.2336L20.7753 7.34051ZM18.8831 5.47835L18.9883 5.37144L18.8811 5.26594L18.7759 5.37343L18.8831 5.47835ZM14.9541 9.49258L15.0613 9.5975L15.0613 9.5975L14.9541 9.49258ZM11.025 13.5068L10.9178 13.4019L10.8133 13.5087L10.9197 13.6136L11.025 13.5068ZM15.3598 17.7804L15.2545 17.8872L15.2545 17.8872L15.3598 17.7804ZM19.7638 22.0602L19.7504 22.2096L19.7505 22.2096L19.7638 22.0602ZM18.2604 2.93432L18.1554 3.04145L18.1554 3.04145L18.2604 2.93432ZM17.141 1.96243L17.0836 1.82384L17.0835 1.82387L17.141 1.96243ZM19.2901 3.9434L19.3968 4.04884L19.5027 3.9417L19.3951 3.83627L19.2901 3.9434ZM14.4042 8.88741L14.2975 8.78197V8.78197L14.4042 8.88741ZM9.51835 13.8314L9.41545 13.9405L9.52205 14.0411L9.62504 13.9368L9.51835 13.8314ZM8.44058 12.8152L8.54348 12.7061L8.54348 12.7061L8.44058 12.8152ZM7.36281 11.7991L7.25614 11.6936L7.14815 11.8029L7.25991 11.9082L7.36281 11.7991ZM12.207 6.89934L12.1003 6.79388L12.1003 6.79388L12.207 6.89934ZM0.85 30.2729C0.85 30.3142 0.86605 30.3474 0.871498 30.3586C0.87973 30.3755 0.889918 30.3922 0.899938 30.4073C0.920233 30.4381 0.947899 30.4745 0.980301 30.5147C1.04562 30.5955 1.13832 30.7011 1.25059 30.8234C1.47559 31.0684 1.78481 31.3863 2.12423 31.7186L2.33409 31.5042C1.99747 31.1747 1.69211 30.8606 1.47154 30.6205C1.36103 30.5001 1.27319 30.3998 1.21368 30.3261C1.18366 30.289 1.16283 30.261 1.15024 30.242C1.14723 30.2374 1.145 30.2338 1.14341 30.2311C1.14178 30.2284 1.14119 30.2272 1.14126 30.2273C1.14131 30.2274 1.14166 30.2281 1.14219 30.2294C1.1427 30.2307 1.14356 30.2328 1.14451 30.2358C1.14594 30.2403 1.15 30.2539 1.15 30.2729H0.85ZM3.77939 27.1114C2.98516 27.9152 2.26281 28.6615 1.73873 29.2164C1.47682 29.4937 1.26373 29.724 1.11574 29.8901C1.04195 29.9729 0.983094 30.0412 0.942162 30.0919C0.921944 30.117 0.904254 30.14 0.890953 30.1596C0.884467 30.1691 0.877021 30.1807 0.870608 30.1931C0.8674 30.1993 0.863157 30.2081 0.859431 30.2187C0.856323 30.2276 0.85 30.2474 0.85 30.2729H1.15C1.15 30.2961 1.14431 30.3129 1.14246 30.3182C1.14 30.3252 1.13764 30.3298 1.13694 30.3312C1.13554 30.3339 1.13558 30.3334 1.13899 30.3283C1.14549 30.3188 1.15725 30.3031 1.17565 30.2803C1.21194 30.2353 1.26695 30.1714 1.33972 30.0897C1.48485 29.9268 1.69565 29.699 1.95684 29.4224C2.47897 28.8695 3.19967 28.1249 3.99279 27.3222L3.77939 27.1114ZM9.00723 21.8202L3.77939 27.1114L3.99279 27.3222L9.22063 22.031L9.00723 21.8202ZM11.349 19.4499L9.00722 21.8202L9.22064 22.031L11.5624 19.6607L11.349 19.4499ZM10.9228 19.2243L11.3484 19.6601L11.563 19.4505L11.1374 19.0147L10.9228 19.2243ZM10.4546 18.5191C10.4546 18.5812 10.4828 18.6435 10.5049 18.6863C10.5308 18.7364 10.5663 18.7923 10.6072 18.8501C10.6894 18.966 10.8009 19.0995 10.9228 19.2243L11.1374 19.0147C11.0253 18.8998 10.9241 18.7783 10.852 18.6766C10.8158 18.6256 10.7887 18.582 10.7714 18.5485C10.7503 18.5077 10.7546 18.5023 10.7546 18.5191H10.4546ZM11.5557 17.1827C11.2629 17.4779 10.996 17.7656 10.8015 17.9919C10.7045 18.1048 10.6239 18.2043 10.5668 18.2828C10.5384 18.3218 10.5138 18.3583 10.4957 18.3903C10.4867 18.4062 10.4777 18.4237 10.4706 18.4416C10.4646 18.4568 10.4546 18.4852 10.4546 18.5191H10.7546C10.7546 18.5319 10.7526 18.5412 10.7516 18.5452C10.751 18.5476 10.7505 18.5493 10.7502 18.5503C10.7498 18.5513 10.7496 18.5519 10.7496 18.552C10.7495 18.5521 10.75 18.5509 10.7512 18.5484C10.7525 18.5459 10.7542 18.5425 10.7567 18.5383C10.7668 18.5204 10.784 18.4942 10.8093 18.4593C10.8596 18.3902 10.9343 18.2976 11.029 18.1875C11.2179 17.9677 11.4798 17.6852 11.7687 17.3939L11.5557 17.1827ZM12.6134 16.1165L11.5557 17.1827L11.7687 17.3939L12.8264 16.3277L12.6134 16.1165ZM11.474 15.2611L12.6174 16.3316L12.8224 16.1126L11.679 15.0421L11.474 15.2611ZM10.3306 14.1906L11.474 15.2611L11.679 15.0421L10.5356 13.9716L10.3306 14.1906ZM10.1884 14.5231L10.5368 14.1894L10.3293 13.9728L9.98086 14.3065L10.1884 14.5231ZM9.5514 14.8986C9.60752 14.8986 9.66409 14.8796 9.70943 14.8603C9.75844 14.8394 9.81105 14.8107 9.86383 14.7777C9.96948 14.7116 10.0854 14.6217 10.1884 14.5231L9.98085 14.3065C9.89213 14.3915 9.79228 14.4685 9.70464 14.5234C9.66078 14.5509 9.62237 14.5713 9.59183 14.5843C9.55761 14.5989 9.54608 14.5986 9.5514 14.5986V14.8986ZM6.39551 11.8112C6.39551 11.8463 6.40496 11.8772 6.41295 11.8984C6.42162 11.9213 6.433 11.9441 6.44517 11.9658C6.46952 12.0092 6.50295 12.0584 6.54201 12.1109C6.62052 12.2166 6.73083 12.3477 6.86123 12.4936C7.12261 12.786 7.47281 13.1466 7.83131 13.4969C8.18982 13.8473 8.55878 14.1895 8.858 14.4449C9.0073 14.5723 9.14146 14.68 9.24942 14.7567C9.30315 14.7948 9.35332 14.8274 9.39743 14.851C9.43373 14.8705 9.49147 14.8986 9.5514 14.8986V14.5986C9.5739 14.5986 9.5754 14.606 9.53915 14.5866C9.51072 14.5714 9.47202 14.5468 9.42309 14.5121C9.32573 14.443 9.19932 14.3418 9.05277 14.2167C8.76031 13.9671 8.39652 13.6298 8.04099 13.2824C7.68545 12.9349 7.34033 12.5795 7.0849 12.2937C6.9569 12.1505 6.85343 12.027 6.78276 11.932C6.74724 11.8842 6.72223 11.8465 6.70678 11.819C6.69906 11.8053 6.69521 11.7966 6.69361 11.7924C6.69134 11.7864 6.69551 11.7944 6.69551 11.8112H6.39551ZM11.5678 6.24363C9.76086 8.07975 8.4775 9.40234 7.64562 10.2883C7.22991 10.731 6.9255 11.0662 6.7245 11.3025C6.62427 11.4204 6.54769 11.5161 6.49546 11.5895C6.46951 11.626 6.44739 11.66 6.43114 11.6904C6.41883 11.7134 6.39551 11.7593 6.39551 11.8112H6.69551C6.69551 11.841 6.68403 11.8537 6.69568 11.8319C6.70339 11.8175 6.71737 11.7951 6.73992 11.7634C6.78468 11.7005 6.85473 11.6125 6.95304 11.4969C7.14912 11.2663 7.44944 10.9354 7.86432 10.4936C8.69361 9.61045 9.97484 8.29001 11.7816 6.45405L11.5678 6.24363ZM16.9475 0.889769C16.9302 0.899003 16.9146 0.911388 16.9069 0.91757C16.8963 0.926035 16.8842 0.936375 16.871 0.947951C16.8444 0.971228 16.8098 1.00287 16.7681 1.04188C16.6845 1.12008 16.569 1.23091 16.4257 1.37033C16.139 1.64935 15.7387 2.04497 15.2543 2.52788C14.2853 3.49379 12.9785 4.81007 11.5678 6.24363L11.7816 6.45405C13.1919 5.02098 14.4979 3.70541 15.4661 2.74034C15.9502 2.25776 16.3495 1.86311 16.6349 1.58534C16.7777 1.44637 16.8915 1.33717 16.973 1.26101C17.0138 1.22283 17.0457 1.1937 17.0687 1.17353C17.0803 1.16338 17.0887 1.15632 17.0943 1.15184C17.1028 1.14507 17.099 1.14895 17.0891 1.15424L16.9475 0.889769ZM18.8234 2.18719C18.1934 1.59893 17.8068 1.24954 17.5539 1.06025C17.4285 0.96634 17.3238 0.902244 17.2302 0.871576C17.1264 0.837585 17.0333 0.843885 16.9475 0.889744L17.0891 1.15427C17.0944 1.15139 17.1017 1.14516 17.1368 1.15666C17.1821 1.1715 17.2546 1.21093 17.3741 1.3004C17.6112 1.47785 17.9848 1.81461 18.6186 2.40645L18.8234 2.18719ZM20.3592 3.92381C20.3592 3.86936 20.339 3.81852 20.3202 3.78023C20.2996 3.73845 20.2711 3.69323 20.2373 3.64565C20.1694 3.55025 20.071 3.43273 19.9447 3.29474C19.6917 3.01812 19.3163 2.64747 18.8234 2.18719L18.6186 2.40645C19.1096 2.86492 19.4783 3.22929 19.7234 3.49723C19.8462 3.63153 19.9353 3.73868 19.9928 3.8195C20.0216 3.86002 20.0402 3.8908 20.0511 3.91281C20.0636 3.93829 20.0592 3.93902 20.0592 3.92381H20.3592ZM19.9488 4.64531C20.0581 4.53252 20.1572 4.40164 20.2299 4.27985C20.2662 4.21891 20.2973 4.15795 20.3198 4.10073C20.3412 4.04608 20.3592 3.98387 20.3592 3.92381H20.0592C20.0592 3.92903 20.0565 3.95049 20.0405 3.99116C20.0256 4.02926 20.0026 4.07525 19.9722 4.12616C19.9114 4.22808 19.8265 4.34047 19.7334 4.43653L19.9488 4.64531ZM19.5808 5.02504L19.9488 4.64531L19.7334 4.43653L19.3654 4.81626L19.5808 5.02504ZM22.3771 7.62098L19.5793 4.81474L19.3669 5.02656L22.1647 7.8328L22.3771 7.62098ZM26.7442 11.9164C25.881 11.0971 23.9155 9.16409 22.3771 7.62099L22.1647 7.83279C23.7037 9.37655 25.6714 11.3119 26.5376 12.134L26.7442 11.9164ZM28.3165 13.4084L26.7442 11.9164L26.5376 12.134L28.1099 13.626L28.3165 13.4084ZM28.5702 12.9925L28.1126 13.4059L28.3138 13.6285L28.7714 13.2151L28.5702 12.9925ZM29.2604 12.5404C29.2242 12.5404 29.1919 12.5509 29.1717 12.5585C29.1486 12.5672 29.1249 12.5786 29.102 12.5909C29.0558 12.6158 29.0027 12.6497 28.9466 12.689C28.834 12.768 28.7 12.8753 28.5703 12.9925L28.7713 13.2151C28.8933 13.105 29.0178 13.0056 29.1189 12.9347C29.1697 12.8991 29.2122 12.8723 29.2441 12.8551C29.2602 12.8465 29.2711 12.8416 29.2774 12.8392C29.2866 12.8358 29.2785 12.8404 29.2604 12.8404V12.5404ZM32.2506 15.5523C32.2506 15.513 32.237 15.4803 32.23 15.4644C32.2211 15.4446 32.2098 15.4247 32.1982 15.4062C32.1748 15.3688 32.1427 15.3249 32.1052 15.2769C32.0297 15.1804 31.9234 15.0566 31.7975 14.9167C31.5452 14.6361 31.2078 14.283 30.8647 13.9373C30.5216 13.5916 30.1712 13.2516 29.8928 12.9974C29.7539 12.8706 29.6311 12.7635 29.5353 12.6873C29.4877 12.6495 29.444 12.6172 29.4069 12.5936C29.3884 12.5819 29.3687 12.5705 29.3488 12.5615C29.3331 12.5543 29.3001 12.5404 29.2604 12.5404V12.8404C29.2336 12.8404 29.2183 12.8317 29.2247 12.8346C29.227 12.8356 29.2338 12.8391 29.246 12.8469C29.2702 12.8622 29.3044 12.8871 29.3487 12.9223C29.4365 12.992 29.5534 13.0938 29.6905 13.219C29.9641 13.4687 30.3107 13.805 30.6518 14.1486C30.9928 14.4923 31.3266 14.8416 31.5744 15.1173C31.6986 15.2554 31.7996 15.3732 31.8689 15.4617C31.9038 15.5063 31.9285 15.5408 31.9438 15.5653C31.9515 15.5776 31.955 15.5845 31.9561 15.587C31.959 15.5934 31.9506 15.5785 31.9506 15.5523H32.2506ZM21.4257 26.5593C21.4613 26.5598 21.4883 26.5477 21.4956 26.5445C21.5072 26.5393 21.5172 26.5334 21.5243 26.529C21.5389 26.5199 21.5541 26.5087 21.5686 26.4975C21.5982 26.4744 21.6363 26.4421 21.681 26.4025C21.771 26.3228 21.8955 26.2069 22.0488 26.0609C22.3558 25.7686 22.7823 25.3512 23.2876 24.8505C24.2984 23.8487 25.6266 22.5108 26.9481 21.1664C28.2697 19.8221 29.585 18.4708 30.5702 17.4421C31.0626 16.9279 31.4731 16.4938 31.7608 16.1813C31.9044 16.0252 32.0184 15.8984 32.0969 15.8067C32.136 15.7611 32.1678 15.7224 32.1905 15.6922C32.2016 15.6774 32.2125 15.662 32.2214 15.6474C32.2257 15.6402 32.2313 15.6304 32.2363 15.619C32.2395 15.6116 32.2506 15.5859 32.2506 15.5523H31.9506C31.9506 15.522 31.9605 15.5009 31.9611 15.4994C31.9635 15.4938 31.9653 15.491 31.9647 15.4922C31.9634 15.4942 31.9594 15.5004 31.9507 15.5119C31.9337 15.5345 31.9067 15.5675 31.869 15.6116C31.7941 15.6991 31.683 15.8228 31.5401 15.9781C31.2544 16.2884 30.8456 16.7209 30.3535 17.2346C29.3696 18.262 28.0552 19.6123 26.7342 20.9561C25.4132 22.2999 24.086 23.6368 23.0764 24.6374C22.5716 25.1378 22.1467 25.5535 21.8419 25.8437C21.6894 25.989 21.568 26.1019 21.4821 26.1779C21.4389 26.2162 21.4065 26.2435 21.3845 26.2606C21.3732 26.2694 21.3673 26.2734 21.3656 26.2744C21.3646 26.2751 21.3676 26.273 21.3736 26.2704C21.3751 26.2697 21.3977 26.2588 21.4301 26.2593L21.4257 26.5593ZM18.3426 23.5837C18.3421 23.6287 18.3607 23.665 18.3669 23.677C18.3764 23.6955 18.3883 23.714 18.4002 23.7311C18.4243 23.7657 18.4575 23.8072 18.4964 23.853C18.5747 23.9452 18.6852 24.0654 18.8163 24.2024C19.079 24.477 19.4304 24.8259 19.7869 25.1689C20.1433 25.5118 20.5063 25.8502 20.7923 26.1034C20.935 26.2298 21.0601 26.3364 21.1564 26.4122C21.2042 26.4498 21.2473 26.4817 21.2832 26.5049C21.3009 26.5164 21.3197 26.5277 21.3383 26.5366C21.3514 26.5429 21.385 26.5587 21.4258 26.5593L21.43 26.2593C21.4594 26.2597 21.4765 26.2702 21.4684 26.2663C21.4658 26.265 21.4588 26.2612 21.4463 26.2532C21.4217 26.2372 21.3869 26.2118 21.3418 26.1764C21.2524 26.106 21.1324 26.0039 20.9912 25.8788C20.7093 25.6292 20.3496 25.2939 19.9949 24.9527C19.6402 24.6114 19.292 24.2656 19.0331 23.995C18.9034 23.8595 18.7977 23.7443 18.725 23.6588C18.6884 23.6157 18.6624 23.5826 18.6463 23.5595C18.6381 23.5478 18.6346 23.5416 18.6338 23.54C18.6296 23.5319 18.643 23.5526 18.6426 23.5869L18.3426 23.5837ZM18.7186 22.9633C18.6215 23.0739 18.5325 23.1913 18.4668 23.2928C18.434 23.3434 18.4055 23.3924 18.3845 23.4363C18.3668 23.4732 18.3432 23.5286 18.3426 23.5837L18.6426 23.5869C18.6424 23.6038 18.6381 23.6011 18.655 23.5659C18.6687 23.5375 18.69 23.5001 18.7186 23.4559C18.7756 23.3679 18.8556 23.262 18.944 23.1613L18.7186 22.9633ZM19.0558 22.5793L18.7186 22.9633L18.944 23.1613L19.2812 22.7773L19.0558 22.5793ZM18.1536 21.8809L19.0628 22.7847L19.2743 22.5719L18.365 21.6681L18.1536 21.8809ZM17.2444 20.9771L18.1535 21.8809L18.3651 21.6681L17.456 20.7643L17.2444 20.9771ZM16.3966 22.0322L17.4561 20.977L17.2444 20.7644L16.1848 21.8196L16.3966 22.0322ZM15.0943 23.1311C15.1315 23.1311 15.1617 23.1184 15.1742 23.1129C15.1909 23.1055 15.2072 23.0964 15.2217 23.0875C15.2511 23.0695 15.2853 23.0451 15.3221 23.017C15.3963 22.9603 15.4918 22.8802 15.6014 22.7836C15.821 22.5899 16.1035 22.3239 16.3965 22.0322L16.1849 21.8196C15.8951 22.1082 15.617 22.3698 15.4029 22.5586C15.2956 22.6533 15.2061 22.7281 15.14 22.7786C15.1066 22.8041 15.0818 22.8214 15.0651 22.8316C15.0566 22.8368 15.053 22.8385 15.0532 22.8384C15.0535 22.8383 15.0566 22.8369 15.0619 22.8354C15.0665 22.8341 15.0782 22.8311 15.0943 22.8311V23.1311ZM14.4833 22.7662C14.5915 22.8607 14.7067 22.9473 14.8065 23.0111C14.8562 23.0429 14.9044 23.0706 14.9477 23.091C14.9842 23.1081 15.0392 23.1311 15.0943 23.1311V22.8311C15.1117 22.8311 15.1097 22.8356 15.0753 22.8195C15.0478 22.8065 15.0114 22.7861 14.9682 22.7584C14.8822 22.7034 14.7789 22.626 14.6805 22.5402L14.4833 22.7662ZM14.1077 22.4383L14.4833 22.7662L14.6805 22.5402L14.3049 22.2123L14.1077 22.4383ZM9.1704 27.6465L14.3131 22.4306L14.0995 22.22L8.95678 27.4359L9.1704 27.6465ZM3.70804 32.9347C3.74554 32.93 3.77529 32.9123 3.78371 32.9074C3.79838 32.8989 3.81348 32.8885 3.82791 32.878C3.85715 32.8567 3.8934 32.8274 3.93524 32.7919C4.01943 32.7206 4.13404 32.6176 4.27525 32.4868C4.55806 32.2249 4.95247 31.847 5.43345 31.3776C6.39564 30.4386 7.70696 29.1308 9.1704 27.6465L8.95678 27.4359C7.49419 28.9193 6.18431 30.2257 5.22391 31.1629C4.74359 31.6317 4.35136 32.0075 4.0714 32.2667C3.93123 32.3966 3.82043 32.496 3.74132 32.563C3.70152 32.5968 3.67165 32.6206 3.65107 32.6357C3.64059 32.6433 3.63486 32.6469 3.63287 32.6481C3.62462 32.6529 3.64188 32.6406 3.67116 32.6369L3.70804 32.9347ZM2.12424 31.7186C2.55068 32.136 2.87999 32.4388 3.12457 32.6354C3.24652 32.7335 3.35151 32.8086 3.4397 32.8584C3.48387 32.8834 3.52726 32.9041 3.56905 32.9178C3.60965 32.9311 3.65788 32.9409 3.70809 32.9347L3.67111 32.6369C3.68127 32.6357 3.68043 32.6386 3.6625 32.6327C3.64575 32.6272 3.62113 32.6164 3.58739 32.5973C3.51976 32.5591 3.42929 32.4955 3.31257 32.4017C3.07982 32.2145 2.75901 31.9201 2.33408 31.5042L2.12424 31.7186ZM13.7705 31.5602C13.7705 32.0873 13.7775 32.4144 13.8081 32.6232C13.8235 32.7287 13.8465 32.8161 13.8849 32.888C13.9259 32.9647 13.9798 33.0154 14.042 33.0536L14.199 32.798C14.1758 32.7838 14.1621 32.7702 14.1495 32.7467C14.1345 32.7185 14.1181 32.6699 14.1049 32.5797C14.0781 32.397 14.0705 32.0937 14.0705 31.5602H13.7705ZM13.8499 30.0829C13.839 30.1112 13.8324 30.1457 13.8278 30.1748C13.8227 30.2073 13.818 30.2464 13.8137 30.2903C13.805 30.3784 13.7974 30.4919 13.7911 30.6221C13.7783 30.883 13.7705 31.2165 13.7705 31.5602H14.0705C14.0705 31.2205 14.0783 30.892 14.0907 30.6368C14.0969 30.509 14.1043 30.4009 14.1122 30.3196C14.1162 30.2788 14.1202 30.2462 14.1241 30.2219C14.1285 30.1943 14.1313 30.187 14.1299 30.1905L13.8499 30.0829ZM14.4963 29.8058C14.3422 29.8058 14.2077 29.8211 14.1002 29.8595C13.9908 29.8986 13.894 29.9679 13.8498 30.083L14.13 30.1904C14.1323 30.1842 14.1422 30.1631 14.2011 30.142C14.262 30.1203 14.3574 30.1058 14.4963 30.1058V29.8058ZM14.9152 29.3048C14.8825 29.4622 14.8596 29.5721 14.8366 29.6527C14.8129 29.7354 14.7948 29.7652 14.7839 29.7771C14.7793 29.7821 14.7711 29.7913 14.7282 29.7978C14.6787 29.8054 14.6103 29.8058 14.4963 29.8058V30.1058C14.6008 30.1058 14.6962 30.1062 14.7736 30.0944C14.8577 30.0815 14.9394 30.0518 15.0056 29.9793C15.0654 29.9136 15.0987 29.8271 15.125 29.7352C15.1519 29.6414 15.1773 29.5186 15.209 29.3658L14.9152 29.3048ZM16.3449 27.456C15.6012 27.7429 15.102 28.4055 14.9152 29.3048L15.209 29.3658C15.3796 28.5437 15.824 27.9785 16.4529 27.7358L16.3449 27.456ZM21.5241 27.2332C19.4325 27.2332 18.2737 27.2377 17.5748 27.2667C16.8731 27.2958 16.6195 27.35 16.3449 27.4559L16.4529 27.7359C16.6831 27.6471 16.8991 27.595 17.5873 27.5664C18.2783 27.5377 19.4297 27.5332 21.5241 27.5332V27.2332ZM26.0977 27.2332H21.5241V27.5332H26.0977V27.2332ZM26.7069 27.5673L26.1737 27.2539L26.0217 27.5125L26.5549 27.8259L26.7069 27.5673ZM27.9164 29.2572C27.6986 28.4431 27.3472 27.9437 26.7069 27.5673L26.5549 27.8259C27.1162 28.1559 27.4256 28.5833 27.6266 29.3348L27.9164 29.2572ZM28.3336 29.715C28.1332 29.6982 28.0899 29.6797 28.062 29.6508C28.0457 29.634 28.0256 29.6032 28.0005 29.5372C27.9754 29.4711 27.9499 29.3823 27.9164 29.2572L27.6266 29.3348C27.6597 29.4587 27.6888 29.5615 27.72 29.6437C27.7513 29.726 27.7891 29.8002 27.8463 29.8593C27.965 29.9821 28.1299 29.9989 28.3084 30.014L28.3336 29.715ZM28.7401 29.7492L28.3336 29.715L28.3084 30.014L28.7149 30.0482L28.7401 29.7492ZM28.9095 31.279L28.8775 29.8952L28.5775 29.9022L28.6095 31.286L28.9095 31.279ZM28.7391 32.9007C28.8041 32.8485 28.8367 32.7688 28.8566 32.6951C28.8778 32.6166 28.8918 32.5164 28.9012 32.3941C28.9198 32.1489 28.9213 31.7886 28.9095 31.279L28.6095 31.286C28.6213 31.7952 28.6195 32.1423 28.602 32.3714C28.5933 32.4862 28.581 32.5649 28.567 32.6168C28.5517 32.6735 28.5401 32.6757 28.5513 32.6667L28.7391 32.9007ZM14.0421 33.0536C14.0694 33.0704 14.0987 33.0771 14.1103 33.0797C14.1272 33.0835 14.1462 33.0865 14.1656 33.0891C14.2047 33.0943 14.2554 33.0988 14.3154 33.1029C14.4361 33.1111 14.6031 33.118 14.8088 33.1239C15.2207 33.1356 15.7935 33.1431 16.4727 33.147C17.8315 33.1546 19.6197 33.1476 21.4057 33.1301C23.1917 33.1126 24.9764 33.0847 26.328 33.0505C27.0037 33.0335 27.5721 33.0148 27.9787 32.9951C28.1817 32.9852 28.3459 32.975 28.4636 32.9644C28.5221 32.9592 28.5715 32.9536 28.6093 32.9476C28.628 32.9446 28.6467 32.9411 28.6636 32.9366C28.6724 32.9343 28.7081 32.9255 28.739 32.9007L28.5514 32.6667C28.5757 32.6472 28.598 32.6437 28.5869 32.6466C28.5839 32.6474 28.5762 32.6491 28.5621 32.6514C28.5343 32.6558 28.4928 32.6606 28.4368 32.6656C28.3253 32.6756 28.1659 32.6856 27.9641 32.6954C27.5611 32.715 26.9954 32.7336 26.3205 32.7506C24.9709 32.7847 23.1879 32.8127 21.4028 32.8301C19.6176 32.8476 17.8311 32.8546 16.4744 32.847C15.7959 32.8431 15.2258 32.8357 14.8174 32.824C14.6129 32.8182 14.4505 32.8114 14.3358 32.8036C14.2782 32.7997 14.2348 32.7956 14.205 32.7917C14.1899 32.7897 14.1807 32.788 14.176 32.7869C14.166 32.7847 14.1802 32.7864 14.1991 32.798L14.0421 33.0536ZM14.1205 33.0758H14.1206V32.7758H14.1205V33.0758ZM27.9803 31.9418L25.1504 32.017L25.1584 32.3168L27.9883 32.2416L27.9803 31.9418ZM27.8343 31.3595V32.0917H28.1343V31.3595H27.8343ZM27.8343 30.6273V31.3595H28.1343V30.6273H27.8343ZM21.3531 30.8011L27.9848 30.7773L27.9838 30.4773L21.3521 30.5011L21.3531 30.8011ZM14.7213 30.8249L21.3531 30.8011L21.3521 30.5011L14.7203 30.5249L14.7213 30.8249ZM14.8708 31.4587V30.6749H14.5708V31.4587H14.8708ZM14.8708 32.2426V31.4587H14.5708V32.2426H14.8708ZM18.5226 32.0924L14.7208 32.0926L14.7208 32.3926L18.5226 32.3924L18.5226 32.0924ZM25.1504 32.017C23.5956 32.0583 20.6127 32.0923 18.5226 32.0924L18.5226 32.3924C20.6145 32.3923 23.6002 32.3583 25.1584 32.3168L25.1504 32.017ZM27.2196 29.6663C27.2196 29.4718 27.129 29.2192 27.0095 28.9897C26.8879 28.7561 26.7225 28.5201 26.5481 28.3592L26.3447 28.5796C26.4862 28.7103 26.6324 28.9151 26.7434 29.1283C26.8566 29.3456 26.9196 29.5456 26.9196 29.6663H27.2196ZM21.3955 29.9914C23.9046 29.9914 25.3259 29.9864 26.1198 29.9619C26.5147 29.9497 26.7629 29.9326 26.9141 29.9069C26.9875 29.8945 27.0536 29.8777 27.1046 29.8494C27.1316 29.8344 27.1613 29.8124 27.1842 29.7794C27.2088 29.7441 27.2196 29.7047 27.2196 29.6663H26.9196C26.9196 29.6473 26.9253 29.6262 26.9378 29.6083C26.9433 29.6003 26.9488 29.595 26.9527 29.5917C26.9546 29.5901 26.9562 29.5889 26.9572 29.5882C26.9582 29.5875 26.9588 29.5872 26.9588 29.5872C26.9589 29.5872 26.9584 29.5875 26.9574 29.5879C26.9564 29.5884 26.9549 29.5891 26.9528 29.5899C26.9486 29.5915 26.9427 29.5936 26.9346 29.5959C26.9181 29.6006 26.8952 29.6059 26.8639 29.6112C26.7356 29.6329 26.5066 29.6498 26.1105 29.662C25.3224 29.6864 23.9067 29.6914 21.3955 29.6914V29.9914ZM15.7213 29.9914H21.3955V29.6914H15.7213V29.9914ZM15.6466 29.45L15.5742 29.812L15.8684 29.8708L15.9408 29.5088L15.6466 29.45ZM16.8555 28.0956C16.2805 28.2503 15.7703 28.8321 15.6466 29.45L15.9408 29.5088C16.0445 28.9903 16.4803 28.5073 16.9335 28.3852L16.8555 28.0956ZM21.7429 28.001C20.3158 27.9905 19.1759 27.9931 18.3556 28.0082C17.9455 28.0157 17.6141 28.0265 17.3662 28.0403C17.1246 28.0539 16.9468 28.071 16.8555 28.0956L16.9335 28.3852C16.989 28.3703 17.1339 28.3538 17.3829 28.3399C17.6255 28.3263 17.9527 28.3157 18.3611 28.3081C19.1777 28.2931 20.3147 28.2905 21.7407 28.301L21.7429 28.001ZM26.1378 28.0335L21.7429 28.001L21.7407 28.301L26.1356 28.3335L26.1378 28.0335ZM26.5481 28.3592L26.2384 28.0733L26.035 28.2937L26.3447 28.5796L26.5481 28.3592ZM8.79509 26.9346L13.783 21.8644L13.5692 21.654L8.58123 26.7242L8.79509 26.9346ZM3.63338 32.0496C3.67131 32.0496 3.69896 32.0347 3.70132 32.0336C3.70994 32.0293 3.71657 32.025 3.71996 32.0227C3.72715 32.0179 3.7334 32.013 3.73742 32.0098C3.74608 32.0028 3.75606 31.9941 3.76634 31.9849C3.7874 31.9659 3.81635 31.9388 3.85218 31.9046C3.92414 31.8359 4.02741 31.7353 4.1582 31.6064C4.41996 31.3484 4.79383 30.9757 5.25203 30.5161C6.1685 29.5969 7.42325 28.3291 8.79509 26.9346L8.58123 26.7242C7.20971 28.1183 5.95545 29.3856 5.03957 30.3043C4.58159 30.7637 4.20844 31.1357 3.94763 31.3927C3.81714 31.5213 3.71524 31.6206 3.64505 31.6876C3.6098 31.7212 3.58344 31.7459 3.5658 31.7617C3.55672 31.7699 3.55151 31.7743 3.54924 31.7761C3.54779 31.7773 3.54965 31.7757 3.55352 31.7731C3.55524 31.772 3.56048 31.7685 3.56798 31.7648C3.56922 31.7642 3.59602 31.7496 3.63338 31.7496V32.0496ZM2.66824 31.2074C2.88702 31.4278 3.09399 31.6287 3.25146 31.7751C3.32998 31.848 3.39743 31.9086 3.44842 31.9515C3.47361 31.9726 3.4969 31.9913 3.51656 32.0053C3.52612 32.0122 3.5377 32.02 3.54994 32.0268C3.55603 32.0301 3.56491 32.0347 3.57562 32.0388C3.58405 32.042 3.60547 32.0496 3.63338 32.0496V31.7496C3.65899 31.7496 3.67743 31.7565 3.68221 31.7583C3.68928 31.761 3.69385 31.7635 3.69498 31.7642C3.69731 31.7654 3.69639 31.7651 3.69102 31.7613C3.68081 31.754 3.66448 31.7412 3.64147 31.7218C3.59606 31.6836 3.53279 31.627 3.45568 31.5553C3.30189 31.4124 3.0979 31.2144 2.88118 30.996L2.66824 31.2074ZM1.87641 30.4094L2.66823 31.2074L2.88119 30.996L2.08936 30.198L1.87641 30.4094ZM2.89284 29.1397L1.8747 30.1998L2.09107 30.4076L3.10922 29.3475L2.89284 29.1397ZM7.91525 24.0453C5.71415 26.2629 3.45387 28.5556 2.89285 29.1397L3.10921 29.3475C3.66815 28.7656 5.92647 26.4749 8.12817 24.2567L7.91525 24.0453ZM11.9178 20.0127L7.91525 24.0453L8.12817 24.2567L12.1308 20.2241L11.9178 20.0127ZM12.9559 20.8324L12.13 20.012L11.9186 20.2248L12.7445 21.0452L12.9559 20.8324ZM13.7818 21.6528L12.9559 20.8324L12.7445 21.0452L13.5704 21.8656L13.7818 21.6528ZM29.2299 13.8695C29.2031 13.8695 29.1839 13.8619 29.1798 13.8602C29.173 13.8575 29.1687 13.8551 29.1681 13.8547C29.1667 13.8539 29.1687 13.855 29.1753 13.8599C29.1881 13.8692 29.2078 13.885 29.2348 13.908C29.2883 13.9537 29.3626 14.0211 29.453 14.106C29.6334 14.2753 29.8729 14.5097 30.1278 14.7681L30.3414 14.5575C30.0846 14.2971 29.8422 14.0599 29.6584 13.8872C29.5667 13.8011 29.4883 13.73 29.4296 13.6798C29.4005 13.655 29.3741 13.6336 29.3523 13.6176C29.3417 13.6099 29.3293 13.6013 29.3165 13.594C29.3102 13.5904 29.301 13.5856 29.2901 13.5812C29.2818 13.578 29.2593 13.5695 29.2299 13.5695V13.8695ZM24.4264 18.7474C25.7562 17.3938 26.9733 16.1634 27.863 15.2715C28.3079 14.8255 28.6706 14.4644 28.9245 14.2149C29.0516 14.0901 29.1509 13.9938 29.2194 13.9289C29.2538 13.8963 29.2795 13.8725 29.2966 13.8574C29.3055 13.8495 29.3103 13.8455 29.3122 13.8441C29.3135 13.8431 29.3112 13.8449 29.3069 13.8477C29.3048 13.849 29.2993 13.8524 29.2915 13.8561C29.2884 13.8575 29.2639 13.8695 29.2299 13.8695V13.5695C29.1953 13.5695 29.1699 13.5818 29.1656 13.5837C29.1566 13.5879 29.1497 13.5922 29.1459 13.5945C29.1382 13.5995 29.1315 13.6045 29.1273 13.6078C29.1183 13.6149 29.1081 13.6236 29.0978 13.6327C29.0768 13.6513 29.0482 13.6778 29.0131 13.7111C28.9426 13.7779 28.8417 13.8758 28.7143 14.0009C28.4593 14.2514 28.0957 14.6134 27.6506 15.0596C26.7602 15.9522 25.5425 17.1832 24.2124 18.5372L24.4264 18.7474ZM19.5902 23.6701L24.4264 18.7474L24.2124 18.5372L19.3762 23.4599L19.5902 23.6701ZM20.55 24.4247L19.5895 23.4592L19.3769 23.6708L20.3374 24.6363L20.55 24.4247ZM21.5105 25.3902L20.55 24.4247L20.3374 24.6363L21.2979 25.6018L21.5105 25.3902ZM26.1778 20.4457L21.2974 25.3906L21.511 25.6014L26.3914 20.6565L26.1778 20.4457ZM31.0582 15.5007L26.1778 20.4457L26.3914 20.6565L31.2718 15.7115L31.0582 15.5007ZM30.1278 14.7681L31.0582 15.7114L31.2718 15.5008L30.3414 14.5575L30.1278 14.7681ZM15.1351 18.4488L13.3286 16.6598L13.1176 16.873L14.9241 18.662L15.1351 18.4488ZM16.9416 20.2378L15.1351 18.4488L14.9241 18.662L16.7306 20.451L16.9416 20.2378ZM16.0836 21.3115L16.9423 20.4503L16.7299 20.2385L15.8712 21.0997L16.0836 21.3115ZM15.225 22.1727L16.0836 21.3115L15.8712 21.0997L15.0126 21.9609L15.225 22.1727ZM13.2122 20.3696L15.0127 22.1728L15.2249 21.9608L13.4244 20.1576L13.2122 20.3696ZM11.4116 18.5664L13.2122 20.3696L13.4244 20.1576L11.6238 18.3544L11.4116 18.5664ZM12.2647 17.507L11.412 18.354L11.6234 18.5668L12.4761 17.7198L12.2647 17.507ZM13.1174 16.66L12.2647 17.507L12.4761 17.7198L13.3288 16.8728L13.1174 16.66ZM27.5186 13.9974L23.6222 17.9794L23.8366 18.1892L27.733 14.2072L27.5186 13.9974ZM25.0412 11.7592L27.5204 14.209L27.7312 13.9956L25.252 11.5458L25.0412 11.7592ZM20.6701 7.44742C21.7107 8.47152 23.6777 10.4118 25.0412 11.7592L25.252 11.5458C23.8885 10.1983 21.9213 8.25788 20.8805 7.2336L20.6701 7.44742ZM18.7779 5.58526L20.6701 7.44742L20.8805 7.2336L18.9883 5.37144L18.7779 5.58526ZM15.0613 9.5975L18.9903 5.58327L18.7759 5.37343L14.8469 9.38766L15.0613 9.5975ZM11.1322 13.6117L15.0613 9.5975L14.8469 9.38766L10.9178 13.4019L11.1322 13.6117ZM15.4651 17.6736L11.1303 13.4L10.9197 13.6136L15.2545 17.8872L15.4651 17.6736ZM19.7772 21.9108C19.8055 21.9133 19.8255 21.9236 19.8284 21.925C19.8351 21.9282 19.8398 21.9312 19.8416 21.9324C19.8454 21.9349 19.8474 21.9364 19.8463 21.9356C19.8447 21.9343 19.8403 21.9308 19.8324 21.924C19.817 21.9107 19.794 21.8899 19.7631 21.8614C19.7016 21.8047 19.6125 21.7207 19.4984 21.612C19.2706 21.3948 18.9452 21.0806 18.5462 20.6929C17.7483 19.9175 16.657 18.8487 15.4651 17.6736L15.2545 17.8872C16.4468 19.0626 17.5385 20.132 18.3371 20.908C18.7363 21.296 19.0625 21.6109 19.2914 21.8291C19.4058 21.9382 19.4964 22.0236 19.5598 22.082C19.5914 22.1111 19.6171 22.1344 19.6361 22.1508C19.6454 22.1589 19.6546 22.1666 19.6629 22.173C19.6667 22.176 19.6727 22.1805 19.6796 22.1849C19.6829 22.187 19.689 22.1908 19.6967 22.1946C19.7006 22.1965 19.7215 22.207 19.7504 22.2096L19.7772 21.9108ZM23.6222 17.9794C22.5509 19.0742 21.5694 20.0687 20.8511 20.7889C20.4918 21.1491 20.1987 21.4403 19.9933 21.6411C19.8904 21.7416 19.8102 21.8188 19.7549 21.8705C19.727 21.8966 19.7067 21.915 19.6934 21.9263C19.6902 21.9291 19.6877 21.9311 19.6859 21.9326C19.684 21.9342 19.6833 21.9347 19.6836 21.9345C19.6838 21.9343 19.6846 21.9337 19.6858 21.9329C19.687 21.9321 19.6895 21.9305 19.693 21.9285C19.6959 21.9269 19.7027 21.9231 19.7123 21.9195C19.7182 21.9173 19.7434 21.9078 19.7771 21.9108L19.7505 22.2096C19.7848 22.2127 19.8108 22.203 19.8177 22.2004C19.8283 22.1964 19.8364 22.1921 19.8408 22.1896C19.8498 22.1845 19.8571 22.1792 19.8613 22.1762C19.8704 22.1695 19.88 22.1615 19.8887 22.154C19.9069 22.1385 19.9309 22.1166 19.9596 22.0898C20.0175 22.0357 20.0997 21.9566 20.203 21.8557C20.4098 21.6535 20.7039 21.3612 21.0635 21.0007C21.7827 20.2797 22.7649 19.2845 23.8366 18.1892L23.6222 17.9794ZM18.3654 2.82719C18.0807 2.5482 17.8109 2.29796 17.6052 2.11932C17.5027 2.03032 17.4141 1.95735 17.3465 1.90719C17.3133 1.88252 17.2816 1.86063 17.2539 1.84498C17.2405 1.83743 17.223 1.82837 17.2036 1.82181C17.1939 1.8185 17.1794 1.81436 17.162 1.81261C17.1458 1.81096 17.1164 1.81029 17.0836 1.82384L17.1984 2.10103C17.1687 2.1133 17.1433 2.11224 17.1319 2.11109C17.1193 2.10982 17.1106 2.10704 17.1074 2.10595C17.1011 2.10382 17.1 2.1026 17.1062 2.10613C17.1178 2.11266 17.1379 2.12591 17.1677 2.14804C17.2262 2.19148 17.3081 2.2587 17.4085 2.34585C17.6085 2.51952 17.8738 2.76545 18.1554 3.04145L18.3654 2.82719ZM19.3951 3.83627L18.3654 2.82719L18.1554 3.04145L19.1851 4.05053L19.3951 3.83627ZM14.5109 8.99285L19.3968 4.04884L19.1834 3.83796L14.2975 8.78197L14.5109 8.99285ZM9.62504 13.9368L14.5109 8.99285L14.2975 8.78197L9.41166 13.726L9.62504 13.9368ZM8.33768 12.9243L9.41545 13.9405L9.62125 13.7223L8.54348 12.7061L8.33768 12.9243ZM7.25991 11.9082L8.33768 12.9243L8.54348 12.7061L7.46571 11.69L7.25991 11.9082ZM12.1003 6.79388L7.25614 11.6936L7.46948 11.9046L12.3137 7.0048L12.1003 6.79388ZM17.0835 1.82387C17.0622 1.83271 17.0464 1.84555 17.0463 1.84562C17.0413 1.84942 17.0365 1.85336 17.0327 1.85661C17.0249 1.86332 17.0155 1.87178 17.0052 1.88125C16.9843 1.90045 16.9557 1.9276 16.9201 1.96182C16.8488 2.03044 16.7471 2.12995 16.6186 2.2567C16.3615 2.51033 15.9958 2.87446 15.5486 3.32195C14.654 4.21701 13.4327 5.44632 12.1003 6.79388L12.3137 7.0048C13.6457 5.65751 14.8667 4.42859 15.7608 3.53402C16.2078 3.0867 16.5729 2.72316 16.8293 2.47027C16.9575 2.34376 17.0582 2.2453 17.1281 2.17799C17.1632 2.14424 17.1899 2.11893 17.2083 2.10202C17.2176 2.09345 17.2238 2.08794 17.2274 2.08488C17.2293 2.08324 17.2293 2.08334 17.2279 2.08437C17.2273 2.08487 17.2251 2.0865 17.2219 2.08859C17.2202 2.08971 17.2113 2.09565 17.1985 2.10099L17.0835 1.82387Z" fill="black"/>
</svg>
