<svg width="32" height="32" viewBox="0 0 32 32" fill="none" xmlns="http://www.w3.org/2000/svg">
<path fill-rule="evenodd" clip-rule="evenodd" d="M23.0881 29.1678L23.0539 26.4712L22.0705 26.4342L21.087 26.3971V25.8948V25.3926H24.5766H28.0663V21.7126V18.0327H29.5295C30.6066 18.0327 31.0094 17.9895 31.0556 17.8691C31.1426 17.6424 28.0355 9.4104 27.4787 8.3924C25.8209 5.36178 23.104 2.77723 20.5266 1.77915C18.634 1.04626 18.3851 1.02874 9.86216 1.02874H2.05276V0.514372V0L10.2692 0.0438358C18.3346 0.0868563 18.5043 0.0929204 19.5008 0.37297C22.7711 1.29203 25.4764 3.40035 27.588 6.67558C28.5056 8.09883 28.8621 8.90102 30.4748 13.1712C31.8728 16.8731 31.9993 17.2789 31.9996 18.0644L32 18.9209H30.5407H29.0814V22.6617V26.4024L26.5752 26.4368L24.0691 26.4712L24.0348 29.1677L24.0006 31.8642H23.5615H23.1224L23.0881 29.1678ZM0.0224375 30.976V31.4201V31.8642H9.03199H18.0416V30.4049V28.9456H15.0595H12.0775V20.9512V12.9568H13.0215H13.9656L14.005 12.481L14.0443 12.0051L15.4719 11.9692C16.2571 11.9495 16.8966 11.9781 16.8928 12.0327C16.8891 12.0873 16.4998 13.7594 16.0278 15.7485L15.1696 19.365L14.6387 19.4041L14.1078 19.4431V20.7494C14.1078 21.8953 14.1429 22.1073 14.3933 22.4753C15.0089 23.3798 15.1596 23.4257 17.5115 23.4257C19.4958 23.4257 19.6568 23.4076 20.0946 23.1354C20.8363 22.6742 21.105 21.9731 21.0604 20.6151L21.0236 19.492L20.4906 19.4533C20.123 19.4266 19.9372 19.3478 19.8917 19.1995C19.8555 19.0812 19.4803 17.4997 19.058 15.6851C18.6356 13.8705 18.2589 12.2859 18.2207 12.1638C18.1574 11.9611 18.2794 11.9417 19.6192 11.9417H21.087V11.4976V11.0534H17.0898H13.0927V11.4976C13.0927 11.9312 13.0806 11.9417 12.5851 11.9417H12.0775V9.97483V8.00796H11.5699H11.0623V9.97483V11.9417H10.5548H10.0472V9.97483V8.00796H9.53959H9.03201V9.97483V11.9417H8.52443C8.02893 11.9417 8.01685 11.9311 8.01685 11.4976V11.0534H4.01965H0.0224558V11.4976V11.9417H1.4183C2.52328 11.9417 2.81415 11.9783 2.81415 12.1175C2.81415 12.2143 2.44298 13.8702 1.98933 15.7975C1.53568 17.7248 1.16451 19.3302 1.16451 19.3651C1.16451 19.4 0.902496 19.4285 0.582255 19.4285H0L0.042954 20.7926C0.08026 21.9775 0.124743 22.2112 0.381423 22.5711C0.928982 23.3388 1.24745 23.4257 3.51207 23.4257C5.78922 23.4257 6.15032 23.3191 6.71574 22.4801C6.96667 22.1078 7.00169 21.8949 7.00169 20.7421V19.4285H6.45775H5.91382L5.0608 15.7803C4.59165 13.7738 4.20841 12.0892 4.20889 12.0369C4.2095 11.9845 4.83813 11.9417 5.60584 11.9417H7.00169V12.4493V12.9569H8.01685H9.03201V20.9513V28.9457H7.50161H5.97121L6.01058 29.4215L6.04996 29.8974L11.5382 29.9305L17.0264 29.9635V30.4698V30.976H8.52441H0.0224375ZM11.0623 12.9569V20.9513V28.9457H10.5547H10.0472V20.9513V12.9569H10.5547H11.0623ZM5.7198 22.1689C5.93282 21.9758 5.98651 21.7778 5.98651 21.1854V20.4437H3.51205H1.0376V21.0865C1.0376 21.8276 1.19291 22.1862 1.5852 22.351C1.73767 22.415 2.67032 22.4546 3.65776 22.439C5.22089 22.4143 5.48759 22.3793 5.7198 22.1689ZM20.0719 21.0088C20.0719 21.7182 19.8782 22.1521 19.4809 22.3331C19.3029 22.4142 18.4428 22.474 17.4548 22.474H15.7379L15.367 22.1031C15.0544 21.7906 14.9961 21.6308 14.9961 21.0879V20.4437H17.534H20.0719V21.0088ZM4.84445 19.3642C4.84445 19.286 3.71215 14.3843 3.61863 14.0577C3.58218 13.9303 3.53332 13.845 3.5101 13.8683C3.48688 13.8915 3.20361 15.0521 2.88062 16.4475C2.55763 17.8428 2.26394 19.0844 2.22796 19.2065C2.16858 19.4081 2.28608 19.4286 3.5035 19.4286C4.24102 19.4286 4.84445 19.3996 4.84445 19.3642ZM17.9612 15.3988C18.1534 16.2542 18.4432 17.5109 18.6053 18.1913L18.9 19.4286H17.5055C16.4424 19.4286 16.1252 19.3909 16.1711 19.2699C16.2042 19.1827 16.5034 17.9693 16.836 16.5734C17.1686 15.1776 17.4793 13.9923 17.5263 13.9395C17.5734 13.8866 17.7691 14.5433 17.9612 15.3988ZM2.05276 28.9457V29.4533V29.9608H2.56034H3.06792V29.4533V28.9457H2.56034H2.05276ZM4.08308 29.4533C4.08308 28.9578 4.09368 28.9457 4.52722 28.9457C4.96077 28.9457 4.97135 28.9578 4.97135 29.4533C4.97135 29.9488 4.9608 29.9608 4.52722 29.9608C4.09366 29.9608 4.08308 29.9488 4.08308 29.4533ZM17.0264 8.00799V8.51558V9.02316H17.534H18.0415V8.51558V8.00799H17.534H17.0264ZM19.0567 8.51558V8.00799H19.5643H20.0719V8.51558V9.02316H19.5643H19.0567V8.51558ZM21.087 8.00801V8.52325V9.03848L21.5629 8.9991C22.0129 8.96185 22.0409 8.93388 22.0781 8.48387L22.1175 8.00801H21.6023H21.087ZM11.0623 6.48527V5.97769H11.5699H12.0775V6.48527V6.99285H11.5699H11.0623V6.48527ZM13.5368 5.97769C13.1032 5.97769 13.0926 5.98977 13.0926 6.48527C13.0926 6.98076 13.1032 6.99285 13.5368 6.99285C13.9704 6.99285 13.9809 6.98076 13.9809 6.48527C13.9809 5.98977 13.9703 5.97769 13.5368 5.97769ZM15.0201 6.51701C15.0574 6.067 15.0853 6.03902 15.5354 6.00177L16.0112 5.9624V6.47764V6.99288H15.496H14.9807L15.0201 6.51701ZM17.0264 5.97769V6.48527V6.99285H17.534H18.0415V6.48527V5.97769H17.534H17.0264ZM19.0567 6.48527V5.97769H19.5643H20.0719V6.48527V6.99285H19.5643H19.0567V6.48527ZM9.03199 3.93204V4.44728L9.03198 4.96252H9.54722H10.0625L10.0231 4.48666C9.98584 4.03665 9.95786 4.00868 9.50785 3.97142L9.03199 3.93204ZM11.0623 4.44728V3.93204L11.5382 3.97142C11.9882 4.00868 12.0162 4.03665 12.0534 4.48666L12.0928 4.96252H11.5775H11.0623V4.44728ZM13.5368 3.94737C13.1032 3.94737 13.0926 3.95946 13.0926 4.45496C13.0926 4.95045 13.1032 4.96253 13.5368 4.96253C13.9704 4.96253 13.9809 4.95045 13.9809 4.45496C13.9809 3.95946 13.9703 3.94737 13.5368 3.94737ZM15.0201 4.48666C15.0574 4.03665 15.0853 4.00866 15.5354 3.97142L16.0112 3.93204V4.44728V4.96252H15.496H14.9807L15.0201 4.48666ZM0.0224375 0.0136045V0.521185V1.02877H0.530018H1.0376V0.521185V0.0136045H0.530018H0.0224375Z" fill="black"/>
</svg>
