<svg width="32" height="30" viewBox="0 0 32 30" fill="none" xmlns="http://www.w3.org/2000/svg">
<path fill-rule="evenodd" clip-rule="evenodd" d="M11.2565 8.67559C10.8267 9.53151 10.6658 9.99644 10.7219 10.2203C10.7765 10.4376 10.8993 10.5404 11.1043 10.5404C11.2705 10.5404 12.4486 9.84495 13.7224 8.99491L16.0383 7.44938L18.558 7.40709C20.6181 7.37251 21.1009 7.32783 21.2055 7.1621C21.383 6.88085 21.3759 0.594305 21.1977 0.261388C21.0632 0.0101637 20.8624 0 16.022 0C12.2855 0 10.9445 0.0418347 10.8242 0.162155C10.6191 0.367198 10.5935 6.51132 10.7961 6.88989C10.8699 7.0277 11.142 7.21035 11.4009 7.29578L11.8715 7.45111L11.2565 8.67559ZM0.0108777 21.1359C-0.0128309 22.8384 0.00352174 24.3738 0.0472413 24.548L0.126702 24.8646H4.69165C8.06199 24.8646 9.29903 24.8222 9.41876 24.7025C9.53491 24.5864 9.58093 23.7109 9.58093 21.6189C9.58093 18.0213 9.47814 17.5591 8.45153 16.5393C8.06932 16.1597 7.66949 15.8215 7.563 15.7879C7.42947 15.7456 7.56578 15.5456 8.0022 15.1433C8.37497 14.7997 8.81547 14.1934 9.07418 13.6679C9.46671 12.8705 9.51299 12.6536 9.51044 11.6244C9.508 10.6666 9.44728 10.3433 9.1496 9.70308C8.16158 7.57804 5.68707 6.43324 3.47302 7.07689C-0.168205 8.13542 -1.20056 12.6491 1.61647 15.1941C1.93948 15.4859 2.13447 15.7478 2.04979 15.776C1.57537 15.9342 0.81305 16.6683 0.459387 17.3076L0.0539825 18.0404L0.0108777 21.1359ZM10.662 26.0336C10.662 29.1407 10.6832 29.4581 10.8985 29.5835C11.0469 29.67 12.9554 29.7228 16.0239 29.7254C20.2919 29.7289 20.9399 29.7025 21.1252 29.5171C21.3057 29.3367 21.3376 28.8484 21.3376 26.2672C21.3376 22.8663 21.2595 22.4909 20.521 22.3432C20.3012 22.2993 20.1214 22.2089 20.1214 22.1424C20.1214 22.0758 20.3942 21.4782 20.7277 20.8142C21.3256 19.6238 21.3763 19.2847 20.9795 19.1324C20.7145 19.0307 20.572 19.1119 17.996 20.8324L15.803 22.2971H13.3947C11.7017 22.2971 10.9382 22.3453 10.8242 22.4593C10.7066 22.5768 10.662 23.5599 10.662 26.0336ZM20.2565 23.3782V26.0133V28.6484H15.9998H11.7431V26.0133V23.3782H13.8938H16.0445L17.6775 22.2992C18.5757 21.7057 19.3106 21.2517 19.3106 21.2902C19.3106 21.3287 19.1586 21.6602 18.9727 22.0268C18.7869 22.3935 18.6349 22.7846 18.6349 22.896C18.6349 23.1836 19.0676 23.3782 19.7071 23.3782H20.2565ZM13.9052 25.9457C13.9052 25.418 13.9165 25.4052 14.3782 25.4052C14.8399 25.4052 14.8512 25.418 14.8512 25.9457C14.8512 26.4734 14.8399 26.4862 14.3782 26.4862C13.9165 26.4862 13.9052 26.4734 13.9052 25.9457ZM16.5066 25.4308C16.0273 25.4704 15.9975 25.5002 15.9579 25.9795L15.9159 26.4862H16.4646H17.0133V25.9375V25.3888L16.5066 25.4308ZM18.0944 25.9457V25.4052H18.6349H19.1754V25.9457V26.4862H18.6349H18.0944V25.9457ZM8.49987 21.2106C8.49987 18.8111 8.4705 18.4454 8.24197 18.0012C7.92743 17.3897 7.34612 16.8229 6.83568 16.6301C6.39908 16.4651 5.52824 16.437 5.52422 16.5877C5.52269 16.6434 5.7165 17.4883 5.95482 18.4652L6.38813 20.2414L5.80278 21.1399C5.14143 22.1549 4.81014 22.4082 4.49057 22.143C4.11031 21.8274 3.22965 20.4246 3.22965 20.1345C3.22965 19.9774 3.41208 19.1263 3.63505 18.2431C3.85802 17.3599 4.04045 16.6033 4.04045 16.5618C4.04045 16.5203 3.81641 16.4863 3.54258 16.4863C2.81573 16.4863 1.96753 16.9512 1.52177 17.5939L1.13507 18.1515L1.09386 21.0351L1.05264 23.9187H4.77627H8.4999L8.49987 21.2106ZM5.03923 19.1221C5.24688 19.9489 5.24841 20.0598 5.05626 20.3531L5.03593 20.3842C4.92132 20.5594 4.86447 20.6463 4.80155 20.6509C4.73962 20.6555 4.67181 20.5805 4.53726 20.4315L4.51299 20.4047C4.29079 20.1592 4.28394 20.0616 4.43948 19.3574C4.70596 18.1511 4.7873 18.1192 5.03923 19.1221ZM6.3766 14.9689C7.62191 14.4358 8.50136 13.0245 8.49855 11.5637C8.496 10.3004 7.58913 8.89604 6.39224 8.30218C5.99409 8.10464 5.58047 8.04047 4.70533 8.04047C3.64996 8.04047 3.48622 8.07729 2.88102 8.45089C2.47486 8.7016 2.00664 9.16543 1.67775 9.64287C1.19205 10.3479 1.13448 10.521 1.08952 11.4112C1.03209 12.5486 1.27772 13.2629 2.01492 14.1025C3.09531 15.333 4.75553 15.6628 6.3766 14.9689ZM3.16208 9.99991C2.70035 9.99991 2.68911 10.0128 2.68911 10.5404C2.68911 11.0681 2.70037 11.081 3.16208 11.081C3.62381 11.081 3.63505 11.0681 3.63505 10.5404C3.63505 10.0128 3.62379 9.99991 3.16208 9.99991ZM5.82282 10.5742C5.8625 10.095 5.89228 10.0652 6.37151 10.0255L6.87826 9.98357V10.5323V11.081H6.32957H5.78088L5.82282 10.5742ZM22.4187 21.4227C22.4187 23.2167 22.4592 24.725 22.5087 24.7745C22.5583 24.8241 24.6541 24.8646 27.1661 24.8646C31.6591 24.8646 31.7359 24.86 31.8844 24.5825C31.9869 24.391 32.0203 23.3388 31.9884 21.3055C31.9445 18.5085 31.9204 18.2639 31.6241 17.6043C31.3288 16.9468 30.4098 15.9293 29.9825 15.7869C29.8578 15.7453 30.047 15.4737 30.553 14.9677C31.527 13.9937 31.9119 13.0501 31.9212 11.6137C31.9268 10.7467 31.8647 10.4576 31.5104 9.70037C31.0129 8.63714 30.2405 7.84742 29.1969 7.33495C28.5232 7.00412 28.2792 6.95944 27.1483 6.95993C26.0212 6.96043 25.7718 7.00599 25.1043 7.33347C24.2069 7.77367 23.1926 8.80743 22.7821 9.70026C22.5473 10.2112 22.4887 10.5926 22.4877 11.6215C22.4864 12.7316 22.535 13.0092 22.8464 13.6736C23.0445 14.0961 23.5005 14.7237 23.8599 15.0681C24.4468 15.6306 24.4884 15.7082 24.2686 15.8313C23.7021 16.1486 23.0899 16.8139 22.7656 17.4648C22.4217 18.1544 22.4187 18.1916 22.4187 21.4227ZM30.9011 21.2087C30.9362 18.6723 30.9251 18.5426 30.6255 17.9761C30.152 17.0806 29.4634 16.5888 28.5807 16.5156L27.8482 16.4549L28.3216 18.3453L28.795 20.2357L28.1606 21.1896C27.2586 22.5462 27.0901 22.5703 26.3375 21.4505C26.2869 21.3752 26.2394 21.305 26.1948 21.2393C25.9008 20.8054 25.7356 20.5616 25.6762 20.2943C25.6 19.9515 25.6978 19.5701 25.9209 18.6995C25.9473 18.5965 25.9755 18.4867 26.0053 18.3693C26.2589 17.3708 26.4678 16.5387 26.4696 16.5201C26.4711 16.5015 26.2142 16.4873 25.8984 16.4885C24.8251 16.4926 23.8261 17.3301 23.5019 18.4974C23.3508 19.0414 23.3115 23.6854 23.4568 23.8307C23.5075 23.8814 25.195 23.9068 27.2068 23.887L30.8645 23.8511L30.9011 21.2087ZM27.435 19.1117C27.647 19.9518 27.6494 20.0695 27.4608 20.3575H27.4607C27.1972 20.7596 27.1023 20.7567 26.879 20.3394C26.731 20.0629 26.7297 19.8652 26.8716 19.2245C26.9664 18.7962 27.0792 18.3868 27.1224 18.3148C27.1655 18.2428 27.3062 18.6014 27.435 19.1117ZM28.8656 14.9136C29.9596 14.3952 30.7624 13.2266 30.8929 11.9626C31.1076 9.88187 29.3172 7.97552 27.1483 7.97552C23.8429 7.97552 22.2144 11.8621 24.5236 14.2398C25.662 15.412 27.283 15.6636 28.8656 14.9136ZM25.5605 10.0255C25.0813 10.0652 25.0515 10.095 25.0118 10.5742L24.9699 11.081H25.5186H26.0673V10.5323V9.98357L25.5605 10.0255ZM28.2294 10.5404V9.99991H28.77H29.3105V10.5404V11.081H28.77H28.2294V10.5404ZM14.4075 7.27287L15.7881 6.35129H18.0223H20.2565V3.71619V1.08107H15.9998H11.7431V3.70912V6.33717L12.4525 6.37803C13.109 6.41582 13.1651 6.44587 13.2038 6.78023C13.2267 6.97897 13.1203 7.38701 12.9673 7.68699C12.9384 7.74362 12.9109 7.79677 12.8853 7.84631L12.8852 7.8466C12.7483 8.11129 12.6648 8.27282 12.7036 8.31138C12.7643 8.37177 13.125 8.13056 14.0504 7.51159L14.4075 7.27289V7.27287ZM13.2971 3.10808C12.8354 3.10808 12.8242 3.12095 12.8242 3.64861C12.8242 4.17628 12.8354 4.18915 13.2971 4.18915C13.7589 4.18915 13.7701 4.17628 13.7701 3.64861C13.7701 3.12095 13.7588 3.10808 13.2971 3.10808ZM14.8768 3.68237C14.9165 3.20314 14.9463 3.17334 15.4255 3.13367L15.9322 3.09175V3.64043V4.18913H15.3835H14.8348L14.8768 3.68237ZM17.0133 3.10808V3.64861V4.18915H17.5538H18.0944V3.64861V3.10808H17.5538H17.0133Z" fill="black"/>
</svg>
