<svg width="32" height="28" viewBox="0 0 32 28" fill="none" xmlns="http://www.w3.org/2000/svg">
<path fill-rule="evenodd" clip-rule="evenodd" d="M0.246334 27.4537C0.00553875 27.2129 0 27.0432 0 19.9036C0 14.3871 0.0361643 12.5637 0.147799 12.452C0.359211 12.2406 8.01612 12.2406 8.22753 12.452C8.31509 12.5396 8.37533 12.9609 8.37533 13.4856L8.37512 13.611V13.611C8.37411 13.9914 8.37357 14.1966 8.47372 14.3201C8.59099 14.4649 8.84634 14.4977 9.40071 14.569L9.55666 14.5892C10.437 14.704 10.7421 14.515 12.6269 12.6883C14.3871 10.9823 15.4055 10.297 16.4939 10.0862C17.3982 9.91106 18.1421 9.63653 18.5219 9.33782C19.0138 8.95087 19.4259 7.92551 19.582 6.70016C19.9249 4.00813 20.0782 3.47885 20.6174 3.12552C20.867 2.962 20.8989 2.86185 20.8472 2.40384C20.7563 1.59697 21.1463 0.823589 21.8782 0.359409C22.5782 -0.084513 23.0901 -0.113226 23.8069 0.251213C24.5161 0.611813 26.0916 2.21695 26.6912 3.18991C26.9625 3.63022 27.7014 4.82187 28.3332 5.838C30.4918 9.31003 31.769 11.8715 31.9707 13.1333C32.1601 14.3177 31.424 16.9081 29.9312 20.3101C29.4408 21.4278 28.9104 22.7186 28.7526 23.1784C28.1566 24.9155 27.0685 26.1366 25.723 26.5783C25.0962 26.784 23.1103 26.7626 21.8282 26.5362C21.2372 26.4319 18.8414 26.2341 16.5043 26.0967C14.1672 25.9594 11.5681 25.7928 10.7284 25.7266C9.88873 25.6604 9.01579 25.6062 8.78853 25.6062H8.37533V26.533C8.37533 27.4146 8.3599 27.4657 8.0594 27.58C7.8801 27.6481 6.17558 27.7001 4.11806 27.7001C0.656887 27.7001 0.481508 27.6889 0.246334 27.4537ZM7.28264 19.9406C7.25747 16.3164 7.22975 13.3423 7.22106 13.3315C7.21236 13.3207 5.83348 13.3429 4.15688 13.3809L1.1085 13.4498V20.0228V26.5958L4.21846 26.5629L7.32842 26.53L7.28264 19.9406ZM4.17291 23.5124C3.02501 23.5124 2.8399 25.1166 3.94133 25.5193C4.04295 25.5564 4.14172 25.5912 4.16083 25.5965C4.17994 25.6019 4.37824 25.5299 4.60149 25.4366C5.1442 25.2099 5.38811 24.6476 5.17105 24.1235C4.98669 23.6784 4.7155 23.5124 4.17291 23.5124ZM25.7556 25.2912C26.8828 24.7083 27.642 23.3096 27.8241 21.4802C28.1864 17.84 28.084 13.4124 27.5791 10.8878C27.233 9.15763 26.5642 6.64055 25.9816 4.87582C25.5824 3.66673 25.4034 3.29678 25.0615 2.97437C24.5728 2.51355 24.2085 2.46351 24.0122 2.83022C23.8475 3.1381 23.9069 3.90412 24.4034 7.87024C24.9454 12.2001 24.9732 13.2744 24.5893 15.0551C24.1985 16.8679 23.8894 17.4277 23.0106 17.9145C22.4135 18.2453 22.25 18.2778 21.1847 18.2778C20.309 18.2778 19.9169 18.2244 19.6265 18.0654L19.2384 17.853L18.7403 18.6913C18.4664 19.1524 18.1592 19.5986 18.0575 19.683C17.7708 19.9209 17.3243 19.7971 17.2012 19.4455C17.1089 19.1817 17.2246 18.9166 17.9732 17.6771C18.4576 16.8751 18.9909 15.9485 19.1584 15.618C19.3258 15.2875 19.9273 14.4037 20.495 13.6539C21.6945 12.0695 22.2339 11.0436 22.4813 9.87624C22.7641 8.54132 22.6701 6.92669 22.2165 5.32699C22.0283 4.66371 21.4851 3.94242 21.3139 4.12862C21.14 4.31773 20.9515 5.07295 20.8717 5.89957C20.7297 7.37187 20.4448 8.65063 20.1465 9.15571C19.5457 10.1725 18.5844 10.8387 17.3766 11.0751C15.8577 11.3724 15.0439 11.8952 13.1666 13.7794C11.3234 15.6294 10.9713 15.8139 9.47064 15.7167L8.37533 15.6457V19.9981V24.3504L9.08354 24.4252C9.95282 24.5171 16.7344 24.9541 18.8445 25.0542C19.6913 25.0944 20.9106 25.2063 21.5542 25.303C22.1977 25.3996 22.9182 25.5017 23.1553 25.5298C23.888 25.6166 25.3935 25.4785 25.7556 25.2912ZM30.5141 12.3431C30.929 13.5351 30.8572 14.4574 30.1961 16.4303C29.9237 17.2432 29.5941 18.1577 29.4637 18.4626L29.2265 19.0168L29.1566 15.8145C29.0833 12.4571 28.9294 11.0713 28.3975 8.97989C28.234 8.33697 28.1128 7.79842 28.128 7.78315C28.2136 7.6976 30.2553 11.5994 30.5141 12.3431ZM22.2475 16.9685C22.8466 16.7876 23.0437 16.4672 23.3535 15.1702C23.5714 14.2584 23.6418 13.6033 23.6445 12.4655C23.6464 11.5933 23.5964 10.932 23.5248 10.8878C23.4571 10.846 23.4017 10.8906 23.4017 10.9872C23.4017 11.3778 22.4365 13.0522 21.5082 14.2721C19.8197 16.4909 19.6498 16.9227 20.4149 17.0507C20.6689 17.0932 20.9322 17.1445 20.9999 17.1647C21.1572 17.2117 21.7518 17.1182 22.2475 16.9685ZM23.4267 1.69852C23.2806 1.77673 23.0957 1.96279 23.0158 2.11198C22.936 2.26117 22.8377 2.68043 22.7975 3.04367L22.7243 3.7041L22.4295 3.38944C22.2258 3.17208 22.1161 2.88136 22.0745 2.44933C22.0234 1.91746 22.0569 1.77864 22.2985 1.52155C22.615 1.18458 23.1067 1.12804 23.4619 1.38778C23.6848 1.55077 23.6836 1.561 23.4267 1.69852Z" fill="black"/>
</svg>
