<svg width="32" height="32" viewBox="0 0 32 32" fill="none" xmlns="http://www.w3.org/2000/svg">
<path fill-rule="evenodd" clip-rule="evenodd" d="M0 30.1702C0 31.3866 0.0235052 31.6603 0.137769 31.7745V31.7746C0.26199 31.8988 1.82205 31.9123 16.0013 31.9123H31.727L31.8635 31.7175C31.973 31.5611 32 31.2494 32 30.1394C32 28.4106 31.9969 28.4055 30.9479 28.4055H30.2466V27.6107C30.2466 26.4812 30.2426 26.4767 29.2353 26.4767H28.4055V25.6438C28.4055 24.9279 28.3809 24.7864 28.2301 24.6356C28.1337 24.5392 27.9956 24.4603 27.9233 24.4603C27.8077 24.4603 27.7918 23.7346 27.7918 18.4548C27.7918 13.175 27.8077 12.4493 27.9233 12.4493C27.9956 12.4493 28.1337 12.3704 28.2301 12.274C28.3792 12.1249 28.4055 11.9817 28.4055 11.3183V10.538L29.2016 10.5074C30.2414 10.4673 30.2466 10.4604 30.2466 9.11204V8.08774L31.0038 8.04799C31.6117 8.01608 31.7847 7.97603 31.8806 7.8449C32.0149 7.66113 32.0316 7.46224 31.9265 7.29665C31.8483 7.17345 16.17 0 15.9789 0C15.8064 0 0.362454 7.05233 0.165344 7.2211C-0.0387117 7.39581 -0.0474938 7.69262 0.145095 7.90542C0.262172 8.03481 0.423001 8.06575 0.977972 8.06575H1.66575L1.66705 9.05205C1.66785 9.6695 1.70972 10.1203 1.779 10.2575C1.88408 10.4656 1.93253 10.478 2.73906 10.5018L3.58846 10.5268L3.61341 11.4223L3.63836 12.3178L3.92329 12.4432L4.20822 12.5686V18.5166V24.4646L3.96891 24.5556C3.83729 24.6056 3.69981 24.6934 3.6634 24.7507C3.62699 24.8079 3.5966 25.2197 3.59586 25.6657L3.59452 26.4767H2.82224C1.74257 26.4767 1.71721 26.5018 1.67946 27.6092L1.64932 28.4931H0.929867C0.487185 28.4931 0.169939 28.5336 0.105206 28.5983C0.0317638 28.6718 0 29.1464 0 30.1702ZM30.9918 29.4137V30.1589V30.9041L15.9781 30.9263L0.964383 30.9484V30.1589V29.3694L15.9781 29.3915L30.9918 29.4137ZM29.2822 27.9233V27.4411H16H2.71781V27.9233V28.4055H16H29.2822V27.9233ZM7.97808 25.4247V25.9507V26.4767H6.26849H4.5589V25.9507V25.4247H6.26849H7.97808ZM9.99452 25.6438C9.99452 24.9278 10.0191 24.7863 10.1699 24.6356C10.2663 24.5392 10.4044 24.4603 10.4767 24.4603C10.5923 24.4603 10.6082 23.7345 10.6082 18.4548C10.6082 13.175 10.5923 12.4493 10.4767 12.4493C10.4044 12.4493 10.2663 12.3704 10.1699 12.274C10.0205 12.1246 9.99452 11.9817 9.99452 11.3096V10.5205H9.51233H9.03014V11.2162C9.03014 12.052 8.93663 12.3378 8.63872 12.4125L8.41644 12.4683V18.4451V24.4218L8.66595 24.516C8.96164 24.6276 9.03014 24.8748 9.03014 25.8301V26.4767H9.51233H9.99452V25.6438ZM14.4658 25.4247V25.9507V26.4767H12.7562H11.0466V25.9507V25.4247H12.7562H14.4658ZM16.501 25.5781L16.526 24.6794L16.8091 24.5479L17.0921 24.4164L17.094 18.4329C17.0957 12.8993 17.0849 12.4493 16.9494 12.4493C16.8688 12.4493 16.7307 12.384 16.6425 12.3042C16.509 12.1834 16.4822 12.0222 16.4822 11.3398V10.5205H15.9562H15.4301V11.3246C15.4301 12.1782 15.3212 12.4493 14.9782 12.4493C14.8225 12.4493 14.8165 12.6746 14.8183 18.4329L14.8202 24.4164L15.1033 24.5479L15.3863 24.6794L15.4113 25.5781L15.4363 26.4767H15.9561H16.476L16.501 25.5781ZM20.9534 25.4247V25.9507V26.4767H19.2438H17.5342V25.9507V25.4247H19.2438H20.9534ZM22.9887 25.5781L23.0137 24.6794L23.2967 24.5479L23.5798 24.4164L23.5817 18.4329C23.5834 12.8993 23.5725 12.4493 23.437 12.4493C23.3564 12.4493 23.2184 12.384 23.1302 12.3042C22.9966 12.1834 22.9699 12.0222 22.9699 11.3398V10.5205H22.4438H21.9178V11.3472C21.9178 12.2246 21.8272 12.4493 21.4732 12.4493C21.3078 12.4493 21.3041 12.581 21.306 18.4329L21.3079 24.4164L21.5909 24.5479L21.874 24.6794L21.8989 25.5781L21.9239 26.4767H22.4438H22.9637L22.9887 25.5781ZM27.3973 25.4685V25.9507V26.4329L25.726 26.4566C24.8069 26.4697 24.0277 26.4533 23.9945 26.4201C23.9614 26.387 23.9342 26.1486 23.9342 25.8904V25.421L25.6658 25.4447L27.3973 25.4685ZM7.45205 18.4548V12.4493H6.31233H5.1726V18.4548V24.4603H6.31233H7.45205V18.4548ZM13.9397 12.4493V18.4548V24.4603H12.8H11.6603V18.4548V12.4493H12.8H13.9397ZM20.3397 18.4548V12.4493H19.2H18.0603V18.4548V24.4603H19.2H20.3397V18.4548ZM26.8274 12.4493V18.4548V24.4603H25.6877H24.5479V18.4548V12.4493H25.6877H26.8274ZM7.97808 11.0027V10.5205H6.26849H4.5589V11.0027V11.4849H6.26849H7.97808V11.0027ZM14.4658 10.5205V11.0027V11.4849H12.7562H11.0466V11.0027V10.5205H12.7562H14.4658ZM20.9534 11.0027V10.5205H19.2438H17.5342V11.0027V11.4849H19.2438H20.9534V11.0027ZM27.4503 10.5206L27.4238 10.9808L27.3973 11.4411L25.6658 11.4649L23.9342 11.4886V11.0046V10.5206H25.6923H27.4503ZM29.2822 8.81096V8.06576H16H2.71781V8.81096V9.55617H16H29.2822V8.81096ZM15.9778 1.05206C16.0617 1.05206 28.4472 6.71687 28.9315 6.97675V6.97687C29.1156 7.07567 27.0417 7.09426 15.9562 7.09294L2.76164 7.09128L3.2 6.88921C11.0308 3.27947 15.9067 1.05206 15.9778 1.05206Z" fill="black"/>
</svg>
