<svg width="32" height="26" viewBox="0 0 32 26" fill="none" xmlns="http://www.w3.org/2000/svg">
<path fill-rule="evenodd" clip-rule="evenodd" d="M0.78521 25.3513C0.623855 25.2618 0.38137 25.021 0.246355 24.8161C0.00997414 24.4576 0.000836142 24.1335 2.98233e-05 16.0818C-0.00093008 8.55837 0.0202846 7.67534 0.209635 7.27634C0.401246 6.87256 0.735053 6.63921 1.4278 6.42481C1.63019 6.36217 1.65003 6.11847 1.65003 3.69506V1.03409L1.97566 0.647096C2.15475 0.434251 2.51191 0.201607 2.76933 0.130109C3.39393 -0.0433697 12.0969 -0.0433697 12.7215 0.130109C13.4153 0.3228 13.8408 0.894916 13.8408 1.63501C13.8408 1.71432 13.8374 1.7875 13.8343 1.85506C13.8266 2.02258 13.8205 2.15545 13.8712 2.26104C14.0657 2.66591 15.0953 2.66972 20.0726 2.68813L20.073 2.68813C20.5963 2.69007 21.1633 2.69217 21.7775 2.69491C29.0975 2.72759 29.4111 2.73868 29.7633 2.97711C30.176 3.25657 30.4761 3.86853 30.4761 4.43062C30.4761 4.71268 30.5478 4.82717 30.7619 4.88714C30.919 4.93115 31.181 5.03299 31.3441 5.11343L31.3838 5.13286L31.3839 5.13287L31.3839 5.1329C31.4522 5.16613 31.5129 5.19568 31.5669 5.23457C32.0003 5.54679 32.0002 6.46065 32 14.709L32 15.3071V24.6596L31.5682 25.0914L31.1365 25.5231L16.1075 25.5188C4.12827 25.5155 1.01905 25.4813 0.78521 25.3515V25.3513ZM30.8317 24.3549C30.9474 24.2392 30.9841 22.0204 30.9841 15.1451V6.08781L30.6583 5.96396C30.4621 5.88936 27.753 5.84012 23.8449 5.84012H17.3572L15.5673 6.63379L13.7773 7.42745L7.51845 7.49095C2.14038 7.5455 1.24266 7.58125 1.13929 7.74493C1.06684 7.85963 1.01821 11.1525 1.01704 16.0218C1.01512 23.2054 1.03739 24.1304 1.21464 24.3077C1.39374 24.4868 2.91374 24.5072 16.0467 24.5072C27.2583 24.5072 30.7149 24.4716 30.8317 24.3549ZM8.50734 15.9694C8.50734 20.9362 8.53303 21.1197 9.29336 21.5833C9.69996 21.8312 9.91887 21.8396 15.9804 21.84L16.0348 21.84H16.0348C21.7653 21.8404 22.664 21.8405 23.069 21.3934C23.1444 21.3102 23.2026 21.2116 23.2717 21.0946L23.2752 21.0887C23.469 20.7605 23.4918 20.2197 23.4918 15.9459V11.1698L23.0572 10.6955L22.6226 10.2212L16.2317 10.1872L15.8482 10.1852C10.3742 10.1558 9.41366 10.1507 8.99659 10.6242C8.90783 10.725 8.84369 10.8474 8.7659 10.9959L8.76589 10.9959L8.74034 11.0446C8.52711 11.4496 8.50734 11.867 8.50734 15.9694ZM22.2764 20.6251C22.4502 20.4512 22.4757 19.8576 22.474 16.0218C22.473 13.4702 22.4214 11.5379 22.3517 11.4276C22.248 11.2634 21.396 11.2322 16.1931 11.2017C12.1048 11.1778 10.0734 11.21 9.90256 11.3014C9.65796 11.4323 9.65022 11.5763 9.65022 15.9972C9.65022 20.2069 9.66736 20.568 9.87245 20.6874C10.0146 20.7702 12.2533 20.8183 16.0857 20.8207C21.3662 20.8241 22.1005 20.8009 22.2764 20.6251ZM14.8884 18.6678C14.0513 18.6705 13.7294 18.9539 13.9894 19.4595C14.0908 19.6566 14.3253 19.6817 16.0651 19.6817H18.0265L18.1112 19.3445C18.2256 18.8888 17.9005 18.6658 17.1217 18.6658H16.5145L16.4793 16.8563L16.444 15.0467L15.3034 15.0096C14.3639 14.979 14.1359 15.0092 14.0105 15.1807C13.851 15.3988 13.9172 15.7432 14.149 15.902C14.2239 15.9533 14.5567 15.9962 14.8884 15.9972L15.4916 15.9991V17.3325V18.6658L14.8884 18.6678ZM15.6495 13.6934C15.433 13.4769 15.4503 12.6358 15.6751 12.4493C15.776 12.3655 15.9903 12.3156 16.1513 12.3385C16.4164 12.376 16.444 12.4458 16.444 13.0784C16.444 13.7294 16.4224 13.7793 16.1257 13.814C15.9506 13.8345 15.7363 13.7802 15.6495 13.6934ZM16.698 4.88771L14.9081 5.68138L13.1181 6.47509H7.89202H2.66593V3.96074C2.66593 2.17446 2.71005 1.40228 2.81831 1.29402C3.037 1.07533 12.4538 1.07533 12.6725 1.29402C12.7563 1.37783 12.8249 1.69496 12.8249 1.99875C12.8249 2.66732 13.0717 3.18056 13.5486 3.50378C13.8867 3.73296 14.2814 3.74659 21.5235 3.77956C28.4641 3.81117 29.1569 3.83312 29.3015 4.02606C29.3888 4.14256 29.4602 4.3678 29.4602 4.5266V4.81534L23.0791 4.85152L16.698 4.88771Z" fill="black"/>
</svg>
