<svg width="32" height="32" viewBox="0 0 32 32" fill="none" xmlns="http://www.w3.org/2000/svg">
<path fill-rule="evenodd" clip-rule="evenodd" d="M14.2857 9.92416C14.439 10.1924 14.4678 11.9217 14.4717 21.067H14.4718L14.4762 31.8924H14.9841H15.492V21.4162V10.94H16H16.5079V18.4321V25.9241H23.3015H30.0953V15.4403V4.95648L30.5714 4.99587L31.0476 5.03528L31.0801 15.9876L31.1125 26.94H23.8102H16.508V27.4479V27.9559H24.254H32V15.9559V3.95592H31.0476H30.0952V3.00354V2.05117H27.04H23.9847L24.0241 2.52735L24.0635 3.00354L26.5721 3.038L29.0808 3.07241L29.0483 14.0221L29.0159 24.9718H23.3016H17.5873L17.5545 17.6432C17.5226 10.5026 17.5283 10.3039 17.7763 9.89718C18.1004 9.36548 18.101 8.71628 17.7777 8.11322C17.6381 7.85261 17.5238 7.49631 17.5238 7.32146C17.5238 7.01127 17.5463 7.00354 18.4504 7.00354C19.3676 7.00354 19.382 7.00876 19.879 7.52136L20.3809 8.03918L21.4153 7.99752C21.498 7.99419 21.5764 7.99158 21.6507 7.9891L21.6508 7.9891C22.1193 7.97349 22.4237 7.96335 22.6213 7.81293C22.9878 7.53393 22.9869 6.77235 22.9845 4.59821C22.9843 4.4123 22.9841 4.21606 22.9841 4.00892V0.545768L22.6495 0.282584C22.3771 0.0683393 22.134 0.0193996 21.3419 0.0193996C20.3741 0.0193996 20.3663 0.022089 19.873 0.527335C19.3839 1.02821 19.3641 1.03527 18.4504 1.03527H17.5238V0.527335V0.0193996H16H14.4762V0.527335V1.03527H13.613C12.7701 1.03527 12.7382 1.02316 12.248 0.517639L11.746 0L10.6236 0.0414648C10.551 0.0441456 10.4817 0.0463648 10.4155 0.0484838C9.91697 0.0644379 9.59554 0.0747252 9.38859 0.233876C9.01292 0.522788 9.01451 1.30227 9.019 3.49675L9.01989 4.00173C9.02282 6.4106 9.06636 7.37626 9.17862 7.52248C9.46319 7.89312 9.88107 8.0194 10.823 8.0194C11.7465 8.0194 11.764 8.01316 12.2539 7.51147C12.7364 7.01736 12.7734 7.00353 13.613 7.00353H14.4762L14.4723 7.41623C14.4701 7.64321 14.3844 7.93985 14.2818 8.07542C14.0432 8.39067 14.0456 9.50424 14.2857 9.92416ZM16.0375 8.02344C16.742 8.01542 17.2368 8.89303 16.8915 9.5382C16.7469 9.8085 16.1756 10.0262 15.8095 9.95046C14.6733 9.7155 14.8719 8.03669 16.0375 8.02344ZM11.7073 6.66232L12.0635 6.3211V4.03435V1.74759L11.7222 1.39145C11.4322 1.08874 11.2798 1.03529 10.7064 1.03529H10.0317V4.01941V7.00353H10.6914C11.2344 7.00353 11.4142 6.94313 11.7073 6.66232ZM16.5079 1.03529V4.01941V7.00353H16H15.492V4.01941V1.03529H16H16.5079ZM22.0952 4.01941V1.03529H21.4205C20.8471 1.03529 20.6947 1.08874 20.4047 1.39145L20.0635 1.74759V4.01941V6.29123L20.4047 6.64738C20.6947 6.95009 20.8471 7.00353 21.4205 7.00353H22.0952V4.01941ZM14.4762 2.05117V4.01941V5.98766H13.7778H13.0793V4.01941V2.05117H13.7778H14.4762ZM19.0476 4.01941V2.05117H18.2857H17.5238V4.01941V5.98766H18.2857H19.0476V4.01941ZM17.0158 31.0035C16.52 31.0035 16.5079 31.0141 16.5079 31.4479C16.5079 31.8818 16.52 31.8924 17.0158 31.8924C17.5117 31.8924 17.5238 31.8818 17.5238 31.4479C17.5238 31.014 17.5117 31.0035 17.0158 31.0035ZM16.5079 29.4797V28.9717H17.0158H17.5238V29.4797V29.9876H17.0158H16.5079V29.4797ZM0 3.95592V15.9559V27.9559H6.73014H13.4603V27.4479V26.94H7.23808H1.01587V15.9559V4.97179H1.5238H2.03174V15.448V25.9241H7.74601H13.4603V25.4797V25.0352H8.25395H3.04761V14.0511V3.06703H5.5238H7.99999V2.55909V2.05117H5.01586H2.03174V3.00354V3.95592H1.01587H0ZM5.03891 22.9207C4.9913 22.8731 4.95237 22.6437 4.95237 22.4109V21.9876H8.76955H12.5867L12.5473 22.4638L12.5079 22.94L8.81669 22.9736C6.78651 22.9921 5.08652 22.9683 5.03892 22.9207H5.03891ZM19.5555 21.9876V22.4956V23.0035H23.3015H27.0476V22.4956V21.9876H23.3015H19.5555ZM4.97645 20.4956L5.01585 20.0194H8.76188H12.5079L12.5473 20.4956L12.5867 20.9718H8.76186H4.93701L4.97645 20.4956ZM19.5555 19.9559V20.4638V20.9718H23.3015H27.0476V20.4638V19.9559H23.3015H19.5555ZM4.95237 18.4956V18.0512H8.76189H12.5714V18.4956V18.94H8.76189H4.95237V18.4956ZM19.5555 18.0512V18.4956V18.94H23.3015H27.0476V18.4956V18.0512H23.3015H19.5555ZM5.03891 16.9525C4.9913 16.9049 4.95237 16.6755 4.95237 16.4427V16.0194H8.76955H12.5867L12.5473 16.4956L12.5079 16.9718L8.81669 17.0054C6.78651 17.0239 5.08652 17.0001 5.03892 16.9525H5.03891ZM19.5555 16.0194V16.5273V17.0353H23.3015H27.0476V16.5273V16.0194H23.3015H19.5555ZM5.00184 14.8223C4.96358 14.7226 4.95109 14.5083 4.97409 14.3461L5.0159 14.0512L8.79367 14.0175L12.5714 13.9839V14.4937V15.0035H8.82143C5.69015 15.0035 5.05994 14.9736 5.00187 14.8223H5.00184ZM19.5555 13.9877V14.4956V15.0035H23.3015H27.0476V14.4956V13.9877H23.3015H19.5555ZM4.97645 12.4956L5.01585 12.0194H8.76188H12.5079L12.5473 12.4956L12.5867 12.9718H8.76186H4.93701L4.97645 12.4956ZM19.5555 11.9559V12.4638V12.9718H23.3015H27.0476V12.4638V11.9559H23.3015H19.5555ZM4.95237 10.4956V10.0511H8.76189H12.5714V10.4956V10.94H8.76189H4.95237V10.4956ZM19.5555 10.0511V10.4956V10.94H23.3015H27.0476V10.4956V10.0511H23.3015H19.5555Z" fill="black"/>
</svg>
